<mxfile host="app.diagrams.net" agent="Mozilla/5.0 (Windows NT 10.0; Win64; x64) AppleWebKit/537.36 (KHTML, like Gecko) Chrome/130.0.0.0 Safari/537.36" version="24.8.4">
  <diagram name="Page-1" id="JC4byU3BdeGrb7lwqRli">
    <mxGraphModel dx="2643" dy="923" grid="1" gridSize="10" guides="1" tooltips="1" connect="1" arrows="1" fold="1" page="1" pageScale="1" pageWidth="850" pageHeight="1100" math="0" shadow="0">
      <root>
        <mxCell id="0" />
        <mxCell id="1" parent="0" />
        <mxCell id="3AwvlTaeFGF3-e-vgOh3-1" value="" style="shape=image;verticalLabelPosition=bottom;labelBackgroundColor=default;verticalAlign=top;aspect=fixed;imageAspect=0;image=data:image/png,iVBORw0KGgoAAAANSUhEUgAABcgAAALDCAYAAAAhV+M2AAAAAXNSR0IArs4c6QAAAARnQU1BAACxjwv8YQUAAAAJcEhZcwAALiMAAC4jAXilP3YAANiwSURBVHhe7N0HeBRV18DxExJCEgi9914kKAgKKgiIgIgoogICCthA7FhBUVBE5VNBVAQRBRWsIGLjFaQXESkiSO+9tyQkhJAv5+ZOZlNJISFh/z+eefbM7Ozs7O7M7nL25FyfmFgCAAAAAAAAAICXyWMvAQAAAAAAAADwKiTIAQAAAAAAAABeiQQ5AAAAAAAAAMArkSAHAAAAAAAAAHglEuQAAAAAAAAAAK9EghwAAAAAAAAA4JVIkAMAAAAAAAAAvBIJcgAAAAAAAACAVyJBDgAAAAAAAADwSiTIAQAAAAAAAABeiQQ5AAAAAAAAAMArkSAHAAAAAAAAAHglEuQAAAAAAAAAAK9EghwAAAAAAAAA4JVIkAMAAAAAAAAAvBIJcgAAAAAAAACAVyJBDgAAAAAAAADwSiTIAQAAAAAAAABeiQQ5AAAAAAAAAMArkSAHAAAAAAAAAHglEuQAAAAAAAAAAK9EghwAAAAAAAAA4JVIkAMAAAAAAAAAvBIJcgAAAAAAAACAVyJBDgAAAAAAAADwSiTIAQAAAAAAAABeiQQ5AAAAAAAAAMArkSAHAAAAAAAAAHglEuQAAADI1c6ePSszZ86Up556Sq666iqpUKGCBAQESIECBaRKlSpy2223yXvvvSf79u2zt7j4fHx84qecpkWLFgn2L6PThAkT7Baz3qRJk6Rly5ZSunRpyZs3rxQqVEhCQkJk7dq1do3czfN53b59u10KAACAC8EnJpaNAQAAgFxl6tSpMmDAANm4caNdkjJNnN53333y6quvSsmSJe3Si0MTnY6c9nVcE+Tz5s2zcxn32WefSa9evexc1unXr5989NFHdi6hI0eOSNGiRe1c7uV5vGzbtk0qV65s5wAAAJBZJMgBAACQ60RGRppk9+TJk+2SOKVKlZIrr7zSXEZFRcnmzZtl5cqVcubMGbuGmOT4F198IW3atLFLsl9uSZDXrFnTVGZnRM+ePeWaa66xc1ljyZIlcu2119o5kUqVKpn7zJMnj3n9v/32W3tN7kaCHAAAIOuQIAcAAECucvr0aWnbtq0sWLDALhFp1aqVDB48WK677roEyUR19OhRGTdunLzxxhty4sQJs0yryb/66iu54447zHx2yy0Jck1yZ2erlPTS13zIkCEm1td+9uzZ4u/vb+YvJSTIAQAAsg49yAEAAJCrPPLII/HJcU10a3uNWbNmSdOmTZMkx5W22Hj++efln3/+kfr165tlWl18zz33yKpVq8w8cqcDBw7YSMyPHZdiclzpjyjORHIcAADgwiJBDgAAgFzju+++M72tHRMnTpS+ffvaudRp+40//vhDqlevbua1El3btJw7d87MI/eJiIiwkUiRIkVsBAAAAKQdCXIAAADkClo9qwNsOjS5fffdd9u5tNFq8s8//9zOielPrq1WkDvltPY0AAAAyH1IkAMAACBX+N///idr1qwxsbZS0bYpGaGDOHbo0MHOiXzwwQc2cmnfbb0PnUaOHGkSsaNGjTKDVgYEBEiFChVMS4+lS5faW7jWrVsnjz76qNSuXVsCAwOlcOHCctVVV8mIESMSVDyn1YoVK+SJJ56QkJAQUyWt91+xYkXp1KmTfPnllxIdHW3XTJ625NDHofuhNm7cKLfffrsUKlTIbE8HNR00aJC5Lqsl3hf166+/SufOnc11+thKlCghzZo1M8+7Vvkn5vna6F8QOHr37h2/XKfkhIeHm5Y87du3l3Llykm+fPnMc1CvXj3zHC9fvtyumby5c+fGb//JJ580y3Sg2Msvv9zse9myZeXmm2+WGTNmmOs86UCxur967Ol9azuYggULmvvWtkH//vuvXTMpz8e1fft2uzROcvt06tQpeffdd80Apjoore6b/gVFt27dZObMmWadtFi4cKHce++9UqVKFfNc6Q9Mus333nvPDJSr9Dh37v9C0ONZj2s9vnWfnXNIj//HH3/c/KiVmgv1fOiPcc52WrdubZemTv+6xblN48aN7VIAAJDjxX7ZBwAAAHK8vn37armwma6//nq7NGOmTZsWvy2ddu3aZa+J89lnn8VfN2LEiJjnnnsuwfrOtHjxYnuLmJhz587FDBo0KMbX1zfZdXWqU6dOzObNmxMsS0l4eHhMr169Ynx8fBKsn3i67LLLYtasWWNvlVSlSpXMeoUKFYrZvn17TIkSJZJso02bNnbtmJjmzZvHL+/Zs6ddemF47ktYWFjMXXfdFX9fyU0VK1aMWbt2rb11HM/XJrUpsR9//DGmZMmSya7rTPpc9+jRIyY0NNTeKqE5c+bEr/vEE0/EjB49OsHtnWny5Mn2FnHmzp0bU7ly5WTXdaY8efLEvPDCC+Y4SsxzvW3bttmlcRLv019//XXe++ratWtMVFSU3UJSp0+fNq99crd1Jj2WN2zYEFOrVq34ZZm1YsUKs13P+0k86Wv0wAMPxERERNhbJXShno8tW7bEX6/n9IEDB+w1KWvdunX8bd5//327FAAA5HRUkAMAACBXmD9/vo3EVIJmRqtWrcTPz8/OielNnpLZs2fL8OHD7ZxLK1C1Gt3x9NNPy2uvvRZf0a1Vr1qp3bNnT2nUqJFZptXlbdq0MXFqtNL5xhtvNNXSsd/ZzTLtnd61a1ezPR2Q1Nn///77zzwff//9t5lPiW5Hb3vo0CG7xKXbzU66L927dzc95VWdOnXMvO6HVsc7du7caSqyPSvva9WqJX369DGTVvQ7WrRoEb9cJ0+ffvqp3HbbbXLw4EEz7+vrK9ddd515PvQvAUqVKmWW635p9fL1119vqo5Ts379+vgKZU9BQUFy66232rm4Cnl9zZ3Kb60u1r8o0EFidT3nvrUX/ptvvinPPfecmc+IzZs3S7t27cx9aYX6DTfcYCrr9TnUCnDH119/LS+++KKdS0j346677kpQnV+mTBlT5a+vkfOc67Gs59GxY8fMfGZptXrz5s3NdpUOwKt/SdCrVy/p0qWLVK1a1SzX1+iTTz6Rm266yQy2m5rMPB96f3qMKD2nnWM1JTpgrL5XKD03s/ucAgAAmRD7BQMAAADI0bSi17OS+vvvv7fXZFzdunXjt/fMM8/YpXGSq1K+9957TVXpyZMnY2bNmhUzadIku3ZMzP/+978E6z744INJqpAXLFgQU65cuQTr6ZQcrZB1ri9dunTMzz//bK9xaSXxjTfeGL+eVskeP37cXutyqrY9tzd16tSYU6dOmYryN954I8HtsqOC3JlKlSoV8+uvv9pr45w9ezZm8ODBCdYbN26cvTYh3T9nHX3NkrNkyZIYPz+/+PWaNWtmqvg96X2+9957MXnz5o1fT6vbE/OsTnamm2++Oebff/81r7fe10cffWTXjok5ePBgTJEiReLXrVevXsyqVavstXG0kv6RRx6JX0eP86VLl9pr4zjX6ZRaBbkz6T7t3r3brhFn7969MVdffXX8OgEBAeYYSGzkyJHx6+i+vP766+b58fTNN9/E5M+fP349Z8oofZ7KlCkTv5327dvH7Ny5017r0r/8KFasWPx6Tz75pL3GdSGfjzFjxsRf37RpU7s0eVox7qx7yy232KUAACA3IEEOAACAHE8TuU7ySaeFCxfaazJOk3DO9u688067NE7iBPn5El6NGzeOX7dLly52aVLr16+PCQoKSrDtxDSB6lwXHBxsbpOSM2fOmHYzzvpDhw6117g8k9Ka8NSWE6nxTJDXrFkzpk+fPume/vjjD7u1hDz3RdtWLF++3F6TVMuWLePX7dSpk12aUFoS5J7badKkSYqtOdTXX38dv65O+qOGp8TJ1wYNGpjXICWerXkqVKgQc/ToUXtNQtpWRZO4zrrdunWz18Rxlut0vgT5VVddleI+6Q88ni2Apk+fbq+Jo219ihcvHn/9sGHD7DVJ/f777wl+tNIpozTR7WyjXbt2SRLynv7555+YfPnymXX1hw99b/B0IZ8Pfb38/f3NdfpYE7di8nTttdfGb0d/QAAAALkHLVYAAACQ4x09etRGcXSAyczSARId52un0b9/fxsltXv37vjBOrV1hw4GmBJtD5LatpTnoKE62KfeJiXahuKNN96wcyJjxoyxUfK0ZYW290grHdBz7Nix6Z5Wr15tt5AybZGhA4SmRFuiOLZu3Wqj9NmwYYPMmTPHzonZN8/WGolpKw/P9ig6MGtqHnvsMfMapGTKlCk2Ehk2bJgZEDQ5Pj4+8a1V9BjS1iAZpdtJaZ+0bYgOCupI/LzOmjVLDh8+bGJdN7V2Lzpw5d13323nMk4HYtUWOA4dnFWfg5TogKg6cKg6e/asabeSmsw8H/p63XLLLSaO/b+zfPPNNyZObMeOHbJkyRIT6/uK5zEEAAByPhLkAAAAyPHCwsJsFCcgIMBGGae9lh2a/EqJ9hNu0qSJnUtKe0w7tDd42bJl7VzytPd0ambOnGkjkbZt29ooZdoH3Um8arJ+y5YtJk6O7l9OoT3DU1O5cmUbiYSGhtoofTx7yzds2NAkV8/nwQcftFFc//nUjo3Unk/tpe28Ftr/Wnudp0b7nms/ee0/7/zgkhGZeV5/+uknG4l069Yt1US10n7emaWP9eTJkybWffPsK5+S9u3b20hk7ty5NkpeZo+zHj162CiuV3lydLlznNx5550X5P0JAABkHxLkAAAAyPGCg4NtFOfEiRM2yjjPwQUTb9+TJtACAwPtXFL//vuvjSTVimiHJgBTqoDXQSS1GtUxevRo6du3b6rTww8/LHnyuF/rPfcnscsuu8xGaaODWGriL71TcoNXJqaDjqbG8zXRSuGMWLVqlY3ifkhIC88BYI8cOSK7du2ycwnpDyc1atSwc0k5g02qunXrpnoMKa0i18FKNZmeUXpcFS9e3M4lL7Xn1XOg17T8pUHjxo3NfmfGX3/9ZaO4H8KSO8YTTzqQqiO14z2zz4fSZHzRokVNrM9Pcj9AffXVVzY6/w9gAAAg5yFBDgAAgByvQoUKNopz6NAhG2Xc/v37bSRSqVIlGyWVUlsMx4EDB2wk560ed6R0f5og9/Ttt98maV+S3KSJXIdnnNj5Hkt2Su1HCeWZ9Neke0Y47UJU4mMoJZoM9awATun5PN9z6flalilTxkZZ63zPqUrtefU8J9JyLOv9ZbbdkefzpOd1csd34un777+3txBTfR4dHW3nEsrs86H0B4vOnTvbuaRV5PpDyD///GNiPcaaN29uYgAAkHuQIAcAAECOp0nL8uXL2zmRZcuW2ShjtFJ17dq1dk4kJCTERkkFBQXZKHnHjx+3kZy3StiRUuLuQlTGp9aO5HyPJTudr33HheDZWz5//vw2Oj/PdRO393Gc77n0TKxn1/Oe2efU8weFtB7L6Xlek5PZY16T2ikd8xfqGPOsCk+cIPesHu/evXumK+oBAED2I0EOAACAXEEHBXR4DryYEQsWLEhQdXrjjTfaKP2c9gtK+0enRWRkpI0SSpxI1QEMNQGYnumJJ56wt0aBAgVslHKiOzmeifWMJrc9E8f6OuYGnknxtD5faT3mU+L5/Oogqckd0+ebLsSgvanRtjvVqlUz8Zo1a0yveIdngtyzXzkAAMg9SJADAAAgV+jatauN4gbm8+zxnF7a29uhvZbT2n4jOaVLl7ZR3CCZaZG4lYqjWLFiNoqT0npIG8/+0yn1Ek9MW+acOXPGziV8fdPD87Xct2+fjVIXERFho4ujVKlSNhLZs2ePjVKmyfHMVoB7Pk85+Xj3TH5r6yO1fPly2bx5s4kbNGhges0DAIDchwQ5AAAAcgWtIK9du7aJtWr0xRdfNHF6/fnnn/LLL7/YOZHHHnvMRhlz+eWX20hkyZIlNkqZtrHYuXOnnUtIE/WeFelLly61UeomTJggM2bMkA0bNiRI7no7TVo6Fi9ebKPUeb6GBQsWzHD/cM/jQiuOU/qrAU+6v9rbXAd79axSzi6eA3Nq8vd8VqxYIefOnbNzGVO/fn0bxW0vLQOy6kCZOlDnokWLZO/evXZp1vJMkE+fPt1cOolyxeCcAADkXiTIAQAAkCtob9+33nrLzon88MMP8uGHH9q5tDl27JjpE+wk9a644grp1q2biTPq1ltvFT8/PxNrb/TzJTYT9zD2pI+xZcuWdk7ks88+s1HKtJq+d+/e0q5dO/MDwsaNG+018HwuNfnqDKaYmvHjx9tIpEWLFhnuKV2vXr34Hzu0MtxJqqZk27Ztsn79etPTXtt4pDZwbFa56aabbBSX/D1f8tuzvUhGNW3aVPLmzWtirUafOnWqiVPz2muvmYS03lbPv+xQvXp1adKkiYlXrlxp/lrEGSxUe53ffffdJgYAALkPCXIAAADkGpoMu/fee+1cXPX3yJEj7VzqtMVGs2bNZOvWrWY+X758Mm7cuEwP5KdtPNq3b2/nRPr27StRUVF2LiFt36HJvdQ8/PDDNhL57bffUk2oa1XyU089ZefiKoBTG3DU29SpU0eaN29u5+Jem9QquTXh+fPPP9s5kQceeMBG6ZcnTx65//777ZyYv3hIra/3kCFDbCRy2223ZXrwy4y466674pP6mzZtklGjRpk4OZok1vMns/T+tPe44+mnn5ZDhw7ZuaT0LwG0etxx33332SjreVaJv/nmm/HvJTqGQUZb8QAAgIuPBDkAAABylTFjxsgNN9xgYm21ogniVq1amcSZzid25MgRGT58uEkcr1271izTpLhWZ3u2lMgMTdI7CU0dAFQT+fv37zfzDr1v3e/z9VnWx3LzzTfbubik3Lvvvpuk9YT2PtbE/KpVq8y8Vjq/8cYbJoZLnxOnwl/b67Rp08a06PCkldLal17/usBx5513SocOHexcxmiyt0SJEibWhLO2CUp835qwHzhwoEycONHM676+9NJLJs5uAQEBMnToUDsXt/967HkOaKtmzpxpnseUfghKr8GDB5t2Nkors7UyXF+rxLS6XF8TZ39q1KiR4EeIrKaJfKfaXd+HHLRXAQAgd/OJ/U9E0v9FAAAAADmYtqx46KGH5IsvvrBL4pQtW9b0NC5ZsqSp1tVe33///XeCBJ/2eP7888/llltusUuS0p7e2rZEaQWytjE5n0mTJkmvXr3iE9mabNSEuA58qEnRhQsXmkRsuXLlxN/f37TUUCkl9TVJqC03HJpo1Qr4AgUKmMpVTSB6Js01yfjKK6/YOVflypVlx44dJp4zZ45pG5IavX7evHkmrlmzZoI2JekRFBRkkque0rMv+pw7963tRrZv325iT/p8O4ll/cFD55OjrXj0rw2c51p/ILn22mulWrVq5jjR18ZzIE3tH67PQeHChe2SOGnZp8Q0maxJXadyXRPgzn2fOnVK5s+fn+BHkxEjRsiTTz5p5+J4tnnR40afR0d698nzOdPjRY8bT3qMdurUSX788Ue7RMwxq8ej/tWFtqlxWtXoeebsuz6uzCTMp02bJp07d06wDW2BpK1q9HzX+9QfGRyFChUyr5Gu4+lCPx+JdezYMcFzoz+M6V+GXIyKfwAAcIFoghwAAADIjX744YeY2rVra9bzvJO/v3/MfffdF7Nv3z5765R99tln8bdr3ry5XXp+v/76a0yhQoUS3K/nVKZMmZi///47pmHDhvHLUnLs2LGYjh07Jrh9clNgYGDMqFGj7K2SqlSpUvy6c+bMsUtTpo/Xc/sZnfR5SCw9+6LXO+vq7ZLTs2fP+HX0NUvN999/H1OiRIn49VOa9BgJDw+3t0ooLfuUnAULFiR47MlNAQEBMWPGjLG3SMhzvW3bttmlcdK7T57P2SuvvGKXJhQRERHTvXv3+PWSm+rXrx8zf/78+Pn8+fPbW2fc3LlzYypXrpzgfpKbLrvssph//vnH3iqhrHg+POlx5Kyv0z333GOvAQAAuRUtVgAAAJBraTWnti6ZNWuWPPLII6ZlSrFixUw1q1Ywa6Wt9nPWXspaSaoDMGZlr2AdKFOrXF9++WVTya77oJWll112mWmjoVWwDRs2tGunTquXdSBSrRR/9NFHTYsYrX7Xx6Z9m7UKWStedVBOrY5G6u644w5Tef/ee+9J27ZtzV8baCW/vkZ169Y1z/Hy5cvNMRIYGGhvdWFo9fWGDRtk7Nixpn2Oc9/BwcHSoEEDeeGFF8xx06dPH3uLi0srxbXP9x9//CE9evSQKlWqmOdEj8nrrrvOtKPRAWmdfuVKK7ozS/9aQ58n/WsArWKvVKmSuV/dn/Lly5tzWfdL+59rlf/FoH954vmXBfr8AACA3I0WKwAAAACAdNP2MM4gqI0aNTJJcwAAgNyGCnIAAAAAgCxatEiGDBlievt79r9PiQ6M69C/cAAAAMiNqCAHAAAAAMj06dNNGxOlg1+uWrXKxMk5ceKEaU2zZ88eM6+D1Hbr1s3EAAAAuQkV5AAAAAAA0y5F+30r7Zffv39/OXXqlJn3pH3/b7zxxvjkuPYK157hAAAAuREV5AAAAAAAY+jQoTJo0CA7J1KwYEG5+uqrpVy5chIaGirbtm2TFStW2GvFDKKpg+TqoLEAAAC5EQlyAAAAAEC8V1991STKo6Ki7JLk1ahRQ7788kuTQAcAAMitSJADAAAAABLYunWrTJgwQWbPnm0G7NSe476+vlKmTBlp0KCB3H777dK1a1fJmzevvQUAAEDuRIIcAAAAAAAAAOCVGKQTAAAAAAAAAOCVSJADAAAAAAAAALwSCXIAAAAAAAAAgFciQQ4AAAAAAAAA8EokyAEAAAAAAAAAXokEOQAAAAAAAADAK5EgBwAAAAAAAAB4JRLkAAAAAAAAAACvRIIcAAAAAAAAAOCVSJADAAAAAAAAALwSCXIAAAAAAAAAgFciQQ4AAAAAAAAA8EokyAEAAAAAAAAAXokEOQAAAAAAAADAK5EgBwAAAAAAAAB4JZ+YWDYGkMUiIiJky5Ytdk6kWrVqEhAQYOcAAAAAAAAAZCcS5EA2Wrt2rYSEhNg5kTVr1kjdunXtHAAAAAAAAIDsRIIcyEaJE+R1b31WAguXtnNQ+U5F20jEL9SN/Y9E2EjkdPn8Nop9EzvnvoXlX77TRiL/Da5kI5GAvX42Egk86K6fN9wGsYIOnrVRnIMN8tpIJHjnORuJFNh7xkYiJ6rks1Hs/oW62w0v6XavyhPlLo/O52Oj2G3uch/bubzu8vAS7m2Lro+0UezzsuOojeKcLVXIRrH7UTXQRkiLcg9uthHSat3sGjaKPabdU8DIe8oGsSKL2CBWuQXuOXs2yNdGsXGge4zHuIe+FJzxn41Ezlxd00ax53sJ91w8UcW9beWv99hIZOu95Wwk4uueNlJ+5gkbxTnQxD1vCuxzz8H9TdztFl/lnrOFVx+3kcj2O4raSKTQFvc94Zyf+yAK7I2ykUhYKXe/gawSUdQ9/mLcjzqJCrZBrKC97jHtf8qNPT97/E+5x7TyPePOH7rcPZZ9Pc7/Arvddc4GuNs6Ut+9jwqz3PMsrKS7gwEnPM4h9+1Bwku5M/mOu+sUWXPSRnF2tC9so9htHXHvr9A29xw8VdHjHHRXSfAegbQJPOx+Rzpd3OM71RF3+Zlg97WLKOIeD+f83dg30n0hiq49baPY70cB7m0PX+5+t1KRRd3bVPkx1Eax91HS/QvMYzXc17rAHveYO9jQfW8vuNUGsaIKuPsUcNTdfuGN7hfDo5cF2Sh2/fzu+nnD3PVPl3CXq+Jr3OcjorDHgQ1kAR+PNE5EUfdYV4U3ue+FeaLd9Q7X87dRLHexlF7qHvunKrnnVtB+dzsHG7rnpo97msV+r7NBLH+Pt+qSy8NsFPs+kC/h+bC7hXsfxf91N3a0lrte8C53B/OddNc5Usfjw85DXvftIcF7jZ/7dTTBY0ba8P+m9Nv7cTUbJcwxHKrvnn9B+9yDMXi3+8UkKr97fB+ul/BYrzDTPcGO1HO/6BXe7B7kfqfcbZ0p6p6ceU+5X+BifN3PrmO13LyKr0feIqKI+55yzuPrVKFt7uM5VT7h/nl+Pvp4fK0MLe/eX4Xf3cdwLq97vp+o7n7mLpvY30bZL+E7KQAAAAAAAAAAXoIEOQAAAAAAAADAK5EgBwAAAAAAAAB4JRLkAAAAAAAAAACvRIIcAAAAAAAAAOCVSJADAAAAAAAAALwSCXJcUjZv3ixPPPGEhISESHBwsAQEBEiVKlXk3nvvlb/++suuBQAAAAAAAAAkyHEJ+fjjj6Vu3boyatQoWbt2rYSGhkpkZKRs375dvvjiC2ncuLG8+OKLdm0AAAAAAAAA3o4EOS4J06ZNk759+8qZM2ekWLFi8vrrr8v8+fNl8eLFMnLkSClXrpxZb9iwYfLuu++aGAAAAAAAAIB3I0GOXC86OlqefPJJiYmJkRIlSsiyZctk4MCB0qxZM7nmmmtMy5UVK1ZItWrVzPovv/yyHDp0yMQAAAAAAAAAvBcJcuR68+bNkx07dph48ODBpud4YiVLlpS3337bxGFhYfLjjz+aGAAAAAAAAID3IkGOXE/bqDhuueUWGyXVqlUrG4msWbPGRgAAAAAAAAC8FQlyJGvnzp0yaNAgadCggRQpUkQCAwOldu3apl2JU63t6NWrl/j4+JgpNc46un5KNm7cKI8++qjUqlVL8ufPL8HBwVKvXj155plnZPfu3XathLSNygsvvCD33HNPfK/x89HBOwEAAAAAAAB4NxLkSGLy5MkmGT506FBZtWqVHD9+XCIiImTDhg0yatQoqVu3rvzyyy927QtHB9MMCQmRDz/80CTKw8PDJTQ01FR7v/POO1KjRg2ZNGmSXdulleFvvPGGfP755+Lr62uXJqWDdjoqVKhgIwAAAAAAAADeigQ5Evj555+le/fucvr0aSlYsKAZ0HLOnDkye/ZsGTBggAQEBJge3p07d5bNmzfbW2WeJsWfeuopiYqKkjp16ph5bZ2yYMEC0ztcK8M1Sa9V4tOnT7e3Sh+nB7lq06aNjQAAAAAAAAB4KxLkiKcJ6EceecTExYsXl7/++kuGDBkiLVq0kJYtW8qwYcPku+++M21StLpbq7YvBG3n8vTTT5u4Q4cOsnLlSunXr59pndK0aVNz3erVq03lekxMjPTp08fsa3p8/PHHMnfuXBPrdhs1amTizDh48KCsXbs2XdOF/FEBAAAAAAAAQOaQIEe8mTNnmmS1ev31100f8MR0EExNlqtZs2aZy8zSanHtCe7v7y/jx4+XfPny2WtcRYsWNS1Y1P79+2XKlCkmTgutgH/88cdN7OfnJyNGjDBxZo0ePdq0hEnP1LFjR3trAAAAAAAAABcbCXLEc/qKax/vu+++28TJ+eyzz8xAndu3b7dLMmfGjBnmUgfjLFGihImT07x5c9PiRTnV4OezcOFCue222+IH5dTEf+PGjU0MAAAAAAAAwLuRIEc8HRhTVatWTYKDg02cnIoVK5pJW61k1tmzZ80gnGr58uVmmylNWmHutFbZunWruUyNVsS3bdtWTp06ZeYffvhhee6550wMAAAAAAAAACTIEU97aqtixYqZy+xw7NgxOXfunJ1Lu+PHj9soeV988YW0b9/e9EpXDz74oGnlciFpn3RN7qdnmjZtmr01AAAAAAAAgIuNBDniaTV3VkkpCe55n+3atTMDdKZlmjx5sr1VUsOHD5eePXtKVFSUmdf+42PHjjVV6BdSyZIlzcCh6ZmqV69ubw0AAAAAAADgYiNBjnhFihQxl0ePHjWXaeWZeI6JibFRQidPnrRRQs59qujoaKlfv36apuQGEFUvvviiPP/88/H7MXjwYHnvvfcueHIcAAAAAAAAQO5Hghzx6tSpYy43b94sYWFhJk7OpEmTpFKlSnLDDTfIli1bxM/Pz14jcvr0aRsltGvXLhslpINuVq1a1cQrVqwwSfKUaP/xIUOGyIQJE2TVqlV2qUsH4Bw2bJiJ8+TJI2PGjJFXXnnFzAMAAAAAAABAYiTIEa9ly5bmUpPU33//vYmT88svv8jOnTtlyZIlUqZMGSlcuLC9RmTbtm02Suj333+3UVKtW7c2l4cPH5apU6eaODmff/65qQjv3bu3TJkyxS6N89NPP8lLL71kYk3YaxK/T58+Zh4AAAAAAAAAkkOCHPHuuusuKVGihIkHDBggO3bsMLGnOXPmyDfffGPiLl26SFBQkISEhJh5NXr0aBu5Nm3aJG+88YadS+rRRx81Fd9K+4Xr+olppfrAgQNN7O/vLw899JCJlbaEeeCBB+ycmME4u3btaucAAAAAAAAAIHkkyBFP25189NFHJt63b580atRI3nrrLVm0aJGpANfe3jqQpg64qb3DtaWJ6tChgwQHB5tYE+SarJ41a5bMmzdPXn31VWncuLHpQV6+fHmzTmKaYHeS3/v37zf3q61R5s+fL3PnzpU333zTbOPIkSNmHd1mhQoVTKy0x/jBgwdNrOtdffXVpgVLapNWwAMAAAAAAADwbiTIkcAdd9whH3/8seTNm9e0PHnhhRekadOm0rZtWxk+fLhERkZK6dKlZcaMGVKuXDlzm6JFi5rbOL3Ix48fb9qmtGjRwiS6w8PDTd/wunXrmuuTo0lvTZJrJbkm03W+efPmpu2LVrNrclwH2tRYE/We9P4cS5culQYNGpx3evnll+0tAAAAAAAAAHgrEuRI4sEHH5T169fLY489JrVq1TJtVAIDA6VevXqmz/eaNWtMlbYnbWmycuVK6dmzp6kU1zYomkC/99575e+//5Zu3brZNZOnyW+tSNfq7r59+5r7zZ8/v9lO5cqV5Z577jE9z51BOB2axN+zZ4+dAwAAAAAAAIC0I0GOZFWtWlVGjRplEuVhYWGmCnz16tXy2muvSbFixexaCWmrFK0U37Vrl6k03717t0ycODG+R7lWncfExJh1UqJJeG3zovcbGhpqtqMDf+oAndo+JbHixYubbaZ3Sm0fAAAAAAAAAHgHEuQAAAAAAAAAAK9EghwAAAAAAAAA4JVIkAMAAAAAAAAAvBIJcgAAAAAAAACAVyJBDgAAAAAAAADwSiTIAQAAAAAAAABeyScmlo0BZLG1a9dKSEiInROpe+uzEli4tJ2D8jnnviUV3HraRiLbbwuykUjxVe46J6q4v/OVWBVlIxG/09E2Egkt528jkQPNztlIpOgKXxuJhJf2sVGcgKM2UO5NpPCWMzYS2dMyr41Eqn113EYiYVWCbSRy6HI/G8Xe33p3Q+HF3f0u9l+EjUQii7rbzL8zzEYiESUCbRTnbJB7+yiPGMgKoRXc8yN4h8cJEavYor02Ejl5ZRkbiUT7u7fJd9w9Hz3tbOOeg2UWuef1ofruMV14ow1i+UW66xTY7p4fvmHueRlVxD1XdrV23zdU1W8O20hkb6viNhLJE+VuN+hw8udpvhMe7ztV3eWVfnTfLPKcCLWRyOEWFWyEtCr34GYbIa32jKtuo9jztLx7zhXe4h7HR+u4x2vgQfc4Djjqxv6hCc9Rv3B3PsLjc+lYTfeczb/XvX3gUXf9E1U8P/fcc/Ocn7t/vhEe51lpd/snqrn7WmyNu83wku5ylX+/e11YaXefTtRw96nk3zaIFVbKvb3n40baeH43i87nvo7H6tggVtlF7mtytLZ7DJxzXx4pssnj88Pjv6B+p9340BXubVXQfve64itO2ij2/TbM/e606f6SNtJj192/4v+6+3S6mHsM+Jy1QawEnyt7Im0U+3lWMcBG+phtEOucx+6VWuJ+91Oh1QraSORM/oTHLM6Pz4D0CXvO/c4VXibh/xOC9oTbSGRz1/w2in3vPeOeH1WnuN9ZTlV2vy8dq+2etJW/OWCj2PP66hI2ij3/PM4hz+9QBedvtVHs+XBdFRvFruNxnqmgv7bYKPbcvKqajfTzxr3v0HLuOVRoq3sue34OBRxxtxtwzH1/Oe3x/e1MQfcxe35uAVnldAn3mCu03T12j1d1j92wyu7yfAfd5WUXuZ9DEUUTfh7G5HG3GxXkxgV3uN+1jtZ2P7B8PT/f9rsn7fFq7veuQlvd5f4n3FzK8RruZ6DnOVRwh7vfh+u5+63KzXc/l8NLu/mXqECPc9BjPzydLu4+1mUT+9so+/HJDQAAAAAAAADwSiTIAQAAAAAAAABeiQQ5AAAAAAAAAMArkSAHAAAAAAAAAHglEuQAAAAAAAAAAK9EghwAAAAAAAAA4JVIkOOStn79egkICJDKlSvbJQAAAAAAAAAQhwQ5LlkRERHSu3dviYyMtEsAAAAAAAAAwEWCHJeks2fPyl133SV//vmnXQIAAAAAAAAACZEgxyXn0KFD0rp1a/n555/tEgAAAAAAAABIigQ5LimaFG/UqJHMnTvXzOfJwyEOAAAAAAAAIHlkD3HJ6NKli3To0EF27twpPj4+8tJLL0mzZs3stQAAAAAAAACQEAlyJEuTzIMGDZIGDRpIkSJFJDAwUGrXri1PPPGE7Nixw64Vp1evXiYhrVNqnHV0/ZRs3LhRHn30UalVq5bkz59fgoODpV69evLMM8/I7t277VrJW7p0qbmsXLmyzJw5U1577TUzDwAAAAAAAADJIUGOJCZPnmyS4UOHDpVVq1bJ8ePHJSIiQjZs2CCjRo2SunXryi+//GLXvnBGjhwpISEh8uGHH5pEeXh4uISGhsqaNWvknXfekRo1asikSZPs2kmVLVtWhg8fLuvXr5dWrVrZpQAAAAAAAACQPBLkSEB7eHfv3l1Onz4tBQsWlJdfflnmzJkjs2fPlgEDBkhAQICEhYVJ586dZfPmzfZWmadJ8aeeekqioqKkTp06Zn7x4sWyYMECefvtt6VcuXImSX/PPffI9OnT7a0SWrhwoTz77LOSL18+uwQAAAAAAAAAUkaCHPE0Af3II4+YuHjx4vLXX3/JkCFDpEWLFtKyZUsZNmyYfPfdd6ZNilZ3v/HGG2bdzNJ2Lk8//bSJtYf4ypUrpV+/fnLNNddI06ZNzXWrV682lesxMTHSp08fs6+JZfeAnAcPHpS1a9ema7qQPyoAAAAAAAAAyBwS5Iinfbs1Wa1ef/110wc8sVtuucUky9WsWbPMZWZptXhkZKT4+/vL+PHjk60AL1q0qGnBovbv3y9Tpkwx8cU0evRo0xImPVPHjh3trQEAAAAAAABcbCTIEc/pK+7r6yt33323iZPz2WefmYE6t2/fbpdkzowZM8ylDsZZokQJEyenefPmpsWLmjt3rrkEAAAAAAAAgIwiQY54OjCmqlatmgQHB5s4ORUrVjSTtlrJrLNnz5pBONXy5cvNNlOatMLcaa2ydetWcwkAAAAAAAAAGUWCHPG0p7YqVqyYucwOx44dk3Pnztm5tDt+/LiNLh7tk67J/fRM06ZNs7cGAAAAAAAAcLGRIEc8rebOKiklwT3vs127dmaAzrRMkydPtre6eEqWLGkGDk3PVL16dXtrAAAAAAAAABcbCXLEK1KkiLk8evSouUwrbX/iiImJsVFCJ0+etFFCzn2q6OhoqV+/fpqm5AYQBQAAAAAAAID0IEGOeHXq1DGXmzdvlrCwMBMnZ9KkSVKpUiW54YYbZMuWLeLn52evETl9+rSNEtq1a5eNEtJBN6tWrWriFStWmCR5SrT/+JAhQ2TChAmyatUquxQAAAAAAAAAMoYEOeK1bNnSXGqS+vvvvzdxcn755RfZuXOnLFmyRMqUKSOFCxe214hs27bNRgn9/vvvNkqqdevW5vLw4cMydepUEyfn888/l8GDB0vv3r1lypQpdikAAAAAAAAAZAwJcsS76667pESJEiYeMGCA7Nixw8Se5syZI998842Ju3TpIkFBQRISEmLm1ejRo23k2rRpk7zxxht2LqlHH31U8uSJOxQff/xxs35iWqk+cOBAE/v7+8tDDz1kYgAAAAAAAADIKBLkiKftTj766CMT79u3Txo1aiRvvfWWLFq0yFSAP//882YgTR1wU3uHv/7662bdDh06SHBwsIk1Qf7AAw/IrFmzZN68efLqq69K48aNTQ/y8uXLm3US0wS7k/zev3+/ud9XXnlF5s+fL3PnzpU333zTbOPIkSNmHd1mhQoVTAwAAAAAAAAAGUWCHAnccccd8vHHH0vevHlNy5MXXnhBmjZtKm3btpXhw4dLZGSklC5dWmbMmCHlypUztylatKi5jdOLfPz48aZtSosWLUyiOzw83PQNr1u3rrk+OZr01iS5VpJrMl3nmzdvbtq+aDW7Jsd1MFCNNVEPAAAAAAAAAJlFghxJPPjgg7J+/Xp57LHHpFatWqaNSmBgoNSrV09eeuklWbNmjVx99dV27Thdu3aVlStXSs+ePU2luLZB0QT6vffeK3///bd069bNrpk8TX5rRboOvtm3b19zv/nz5zfbqVy5stxzzz2m5/mwYcPsLQAAAAAAAAAgc0iQI1lVq1aVUaNGmUR5WFiYqQJfvXq1vPbaa1KsWDG7VkLaKkUrxXft2mUqzXfv3i0TJ06M71GuVecxMTFmnZRoEl7bvOj9hoaGmu3owJ86QKe2WUkvbdGi97l9+3a7BAAAAAAAAADikCAHAAAAAAAAAHglEuQAAAAAAAAAAK9EghwAAAAAAAAA4JVIkAMAAAAAAAAAvBIJcgAAAAAAAACAV/KJiWVjAFls7dq1EhISYudE6t76rAQWLm3noO58/ncbieT1ibaRSFHfUBuJ/N+6NjYSqVb0iI1ETkXls5FInUIHbCQye0cNG4k8VGehjUQmbm5iI5Gw0/42ilO//B4biew8WcRGIndUXGkjkY1h7mt3eYHdNhK5InCHjURe2XKbjUSiz7m/SebzO2sjkVtLr7aRyJj1TW0kUjAowkYiTUtttVGcPacL20hky5jaNgKyRrW+620k8ueWKjaK8+iVc20Uew5GB9hI5Pd97nFZpeBRG4lUDnLP2W/XN7CRSPMqW2wUu37gYRuJLDxSzUYi63eUsZFIyZInbCRyY9kNNhIZWvJfG8W+Dyy6x0Zx8uZ1z7vIyLw2ij1ny7nn+50l/7aRyNRDDW0kUj3/IRuJTNt6uY1EyhVy96N5iU02Evnx/26wEZB1Ior52EjE/6T7lT5vuBvHuKtIeCn3c+hUlXM2Eqk91j1H1fZOxW0kUmm6e92ZEvltFPu5WcY9h4oud8/rw43d24aWc++8xD/u+ecb4X6++3j8T8T/cLiNRPY1dz97i2w4Y6M4p4v72Uik8PpTNoo9r4sH2kjkZCV3/4qvcr9DHK9VwEZIK/8w91jxP+6+jkdC3O9dp0u5L2Sxf9240PqTNop9TZu5313yRLnrnPN3j5PAQ+59qTxnPY5lX3e9gMNRNhI5Uc39DpfvuLt+WFn3eC+43T3mfCM87sOjXOxIHfeYCa3uPk7/w742ij0ffjttI5GoAu5xqKID3I1FFnRvA2SFGI9DLOige7yqE1XcY9k30j0ngne5582p8u46gUfdc+LIZe6Gi691t3uqnHu8nylkg1j597rbDy3vnqOl/3Lft4/UTfj/rCIb3f04Vt3dj4Bj7raOu/99k7xh7nbPum/zErzDXf9soLtOlMfbfFQBd53CG20AZKGD17vnTYWK7v9pdu8raiORlrXd/7ucjnbPgSfLurmQ+1f1tFGcYvnd70i1Cru5jpD8e20k8vP+ejaKPT/83VzC8s2VbCTSoo57IjQv7O7H+5ta2Cj2c8/P/cwsFujer6fI6ISfgcUCwmwU+1kZ5H53/Ouwe997DrvfA5pX3WwjkdUfuP+3Wjaxv42yn8dXAgAAAAAAAAAAvAcJcgAAAAAAAACAVyJBDgAAAAAAAADwSiTIAQAAAAAAAABeiQQ5AAAAAAAAAMArkSAHAAAAAAAAAHglEuQAAAAAAAAAAK9EghwAAAAAAAAA4JVIkAMAAAAAAAAAvBIJcgAAAAAAAACAVyJBDgAAAAAAAADwSiTIAQAAAAAAAABeiQQ5AAAAAAAAAMArkSAHAAAAAAAAAHglEuQAAAAAAAAAAK9EghwAAAAAAAAA4JVIkAMAAAAAAAAAvBIJcgAAAAAAAACAVyJBDgAAAAAAAADwSiTIAQAAAAAAAABeiQQ5AAAAAAAAAMArkSAHAAAAAAAAAHglEuQAAAAAAAAAAK9EghwAAAAAAAAA4JVIkGex6Oho2bRpk51zTZgwQXx8fMw0d+5cuzR3yOn7vnfvXhk4cKBceeWVUrhwYcmXL59UqFBB7rrrLvn999/tWgAAAAAAAAC8HQnyLLR8+XK56qqrZNKkSXYJstr06dOlTp068sYbb8jKlSvlxIkTcubMGdm9e7d8//330rZtW+nVq5ecPXvW3gIAAAAAAACAtyJBnoUaN25skrTIHsuWLZPOnTvLyZMnJSgoSF544QX5448/5M8//5Rx48ZJ7dq1zXoTJ06U/v37mxgAAAAAAACA98p1CXJfX18z+fn52SU5l7ZXSYlWMcfExJipRYsWdiky46mnnpLIyEgJDAyUefPmmSryG264wfxQ8cADD8jff/8tTZo0Met++OGHsnbtWhMDAAAAAAAA8E65LkHuJJV1Ahxbt26VRYsWmfjRRx+VRo0amdhT/vz55aOPPjLxuXPn5KuvvjIxAAAAAAAAAO+U6xLkFStWlEqVKplLwLF48WIbidxyyy02Sqp+/fpSrFgxE69Zs8ZcAgAAAAAAAPBOuS5Bvn37dtm2bZuZstPq1aulb9++UqtWLdPCo0CBAlK9enXp3bu3LFiwwK4Vp3LlyuLj42PnRIYMGWLmddL9VxMmTIhfNnfuXLPM4dx+6NChZn7y5MnSvHlzKVq0qBQsWFAaNGgg77//vqmCdug6zZo1k8KFC5tKaR0cdPz48fbahLS9i3PfqXHW0fXTytn31NrG6ON1tq3PQ2I6qKZWerdq1coks/39/aVkyZJy/fXXy/Dhw02P8cS0v/iLL75o9rVGjRp2afKcvz7QdiwAAAAAAAAAvBeDdKaBJpqvvPJKGTt2rGzcuFEiIiIkLCxMtmzZYhK8mrh95JFHLnjbF+1hfuedd0r37t1l/vz5cuzYMTl16pSsWrVKHn/8cbnnnntMkrxHjx5mnYULF8qJEyckPDzc9NvWvtvPPvus3VrucPToUbn22mulX79+Mnv2bDMfFRUlhw4dMj9EPP/881KzZk3zg4UnbamiPyh89tlnUqZMGbs0Ke07rttUFSpUMJcAAAAAAAAAvBMJ8vPYsGGDPPzwwyZZrRXj48aNM+08NFk7evRoUzGtNP7uu+9M/Ouvv8rKlStNrPr06WPmdSpbtqxden4ffPCBTJkyRRo2bChffvml6bGtldVaJa60arx9+/YyadIkadmypVl3yZIl5nZFihQx67zzzjsmqZ9bPPnkk7J8+XIT6/M+Y8YMWbZsmfz888/Ss2dPs/zAgQPSrVu3BBX0afX222/bSKRNmzY2AgAAAAAAAOCNcnyCXCumNUk6bdo02bFjh12afXQgR61g9vX1NRXNWpV9zTXXSNOmTU0CVxPlTsLaaWly2WWXmV7XjtKlS5t5nbRdSFodPnzYtCrRxLhWiGtltbZ5+eSTT+waYp6bzp07y6xZs6RTp07SpEkTU83uDECpVe2asM8NtOXJN998Y+KHHnrI/OjQtm1bUx2uPwRotf4zzzxjrtdK8KVLl5o4rfS5mjhxoom1j/1tt91m4ow6ePCg2Y/0TJs3b7a3BgAAAAAAAHCx5YgEuVYIa7I5cSJXK7K1DYYmR++44w6pVq2aqSLWFifZRauVlfYc10R3YuXLlzc9xl944YX4CucL6f/+7/8kX758di6OJnbz5Il76bSPt1ZFO/OOG2+8UQICAkysrWByg+PHj5v+40qr9ZOjrWW0Il97kZcoUcIuPT8dkFOrzp02OFpZnzdvXhNnlCbwQ0JC0jV17NjR3hoAAAAAAADAxeYTc6EbZ6eTJjoHDBhg4kGDBsngwYNNrK1NLr/8clO97UkTwq1btzbVwNlh5MiR8tRTT5lYk/RvvvlmisnbxHRf1SuvvBL/uBxaDa0DfKo5c+YkGNRS27ZotbxWpmu/bGc7nrTP9v79+82+bNq0yS5NyFlHB67U3twOnXcqqVN7+Z371cS/52Caadl3HVQ08eCjDl2uLWGU7pczCKi2TClevLjpta6P/cMPPzTPeeIfCNJr3bp1ZsDPffv2mXn9MUaT25mlr6n+OJIZdW99VgILJ/3hxZsV+c8dhPVA40I2Egmr4B6r/ifcc6L823/ZSCS0Y0MbiZwq72sjkbxh7m2Dd521kcjeZn42Eim8wQbWsdo2iFX0P/f2+fe570k+0e7y0PLuX4ecDXT3z9fj97wCe+N+AFK7W7rrl5/tLvfcTpGv4toNqQN9Gtkozjl31yXgSMrnMXAhnKroHtN5Q21gRQXbIFbR9dE2iv18yePepsD2MBuJbO1UwEb6JcQGsTzPwbCy7m1LrHTPueM13B82Pc+BQtvd+/UUcMQ9t9TxanE/HKuzQe59BBxxW3YV3OLua2ilIBvFPobv3L9a8mlY10Yip8vmt5HI/sbu+07i9xQgKwQddM+PGD+Pz57T7jF9vLr7uVJgn3uuRBRxj9foRH/geLqku63AA+6J6nnelF54wkYikSUDbRR73pR1z9NC290B0f0PuufW4auK2ij2fC/jcb7/4z6egIOnbRS7P2Xcc1EdreW+AQTvdh/rmfzuts55PKbSk9baSOTIbe75i7Qp96D7F5AdS7ptJCfvbWyj2O/FlafbSKT7ogdsFPtdt2Lc92/179ZyNhLp22i+jWI/F04Xt1HsZ4xPwhaKBf3c4+DnHe5rFx7mvp9fVt69jyA/931/2dZKNor9/hbsfiHrWnWFjUQ+X3+1jWLvK7+7Tuhp9/8fv1w1xkYiP4aG2Cj2tlvcx68io9zjssC0gjYCsobn/yvOFPT4UhQr7yn3/zthZdw3wxiPmrpTVdz3ywq/u+/PR+u477fRAe46ZeYesVHsNqu6/0fz/CwJPOTe76H67mdBidUJczrhJdz9LbzJPccjirv7mjfU/bw6XcLdVnhJ90H4n3A/nwrucD9vwku528lz1l0nKihH1IfiEhftkb7ydQ9LCTjuHtOHQ9xzoNA293Mv2t8956Lc/2IYAcfcY/lIPXc9z9xIHo//+hTY6273WA332I8OcLdTarm7T4eucPcpaJ+7jufHsuf/v4psTPj/rDCP73/597rn/LGa7vnoH+puN6ysu0+e97dsYn8bZb+L+g7x77//muS4Jmm1AtqzClqrojU5rklarRj+4YcfpEuXLmbdmTNnmvnsoANhOpXj2uO7Ro0apoVK//795X//+1+WVrNXrFjRPP7kOEnjUqVKmcvkOOtc5N9A0kxf/6efftrEWk2ubWU0Ya4V85osz0glvPZ91wS+kxzv0KGDjBo1ysQAAAAAAAAAvNtFTZCPGTPGJG9LlixpBmZ8+eWXzXIdEHPq1KkmOXz11VebgSk1Sap9tW+66SZzGx20MjsUK1ZMfv/9d7niiivskriK5BEjRph90QRu165d5a+/3CrWCyU42KMsLwV+fgl/Lc7tBg4caP6SwOnVHhoaKtOnT5dHH33UVMtrmxJtO3P6tPtLc0r0hxStZNde4Upb9Wjbngv1nPXr18+0bknPpL30AQAAAAAAAOQMFzVBrq02NAn+7LPPmnYqjsWLF5s2G0oHoPR03333mcu///7bXGaHevXqmUpkHaRTB8DUNiKOsLAwM7CkDo6pfa0vpIuZ/NZ2J1kltW3r8fDqq6/Krl275P333ze91D1brOhAl88995wZ8FTbx6Rk0qRJJiGug7wqbdWiP7pktl2LJ/1hp27duuma0tqeBwAAAAAAAEDWu6gJ8j179phLrRL3pK1LHG3btrVRHB20UzlVwdlFE7faN/uDDz6Qbdu2mb7f2vZDe1srrWrXxO3mzW6PvpzKs21LSu1XTp50+0Cnh7Pt1Nq6pGXbmnzWqnGtAtcfS/SYeOKJJ8xytXHjRvN8J2fs2LGmNY7Tv/6BBx4wP2I4VekAAAAAAAAAoC5qgtzp3x0Q4A6yopwEufb+1n7fnpzK8uyqrtZ9XL16talc9qSVwNpiY9asWfLGG2+YZVoZre1YcjrP5y6lViVawZ0RzrZTa4GS2ra1V/gff/whZ8+6A3wEBgZKmzZtzICp+jqUKxc3wE9yA7Vq6x0dhNNJ0L/44osybtw48fV1Bw8BAAAAAAAAAHVRE+Rly5Y1l55V15ogXbFihalEbteunV3qWrhwobnUASyzQ6VKlUz/cW2tkhLtRe7wHLTTs1I7JylcuLCNxFTDJyejiX5n2zt27EixijylbWuveT0mtK2K8zonpj3fGzVqZOLEA6RqH/v7778//n61V/nQoUNNDAAAAAAAAACJXdQEebNmzUwyUyuDtZe30oSmk+Ds1KmTuXRoH/BRo0aZxLPeNjvcfPPN5nL+/Pny888/mzgxbd/haNiwoY0kvt+1DjSZk+hAl47Ro0fbyKXtY5yq+PRytq0tcL7//nsTe9I+4Ck9j/pDQ548cYekVn47LVI87d27Nz557vlc67raVuXMmTNmfsCAAfLMM8+YGAAAAAAAAACSc1ET5A899JC51AE3q1atagbDHDNmjEmAV6lSJb4yW6ucdXDOpk2bmmSztsvQ9ibZ4fnnnzeJbk3a60CP2hd7+vTpsnTpUpk2bZp0795d3nrrLbPuddddJ82bNzex0hYx6uuvvzatWJYsWRL/Q8DF1KFDBwkODjaxJsi1R7fu37x588wAmY0bNzZ9wsuXL2/WSY9u3brZSKR3797mBw9NaGs7lD59+phBV7X6P7kWOfqaa5Jb6UCtV155pWmPsmDBApkzZ475ceSaa66RI0eOmGNEk+AOba2ybt06E+t29MeVVatWpTrlhn7xAAAAAAAAALLORU2Qa0L55ZdfNsnnQ4cOmf7SGgcFBclnn30WX02sfccnTJhg+lprYvSdd96Ryy+/3FyX1WrXrm2Sr9onXauTdWDO2267TZo0aSK33367TJ482exz/fr1ZcqUKfZWcTQRrXQw0tatW8u1115rkuQXW9GiReXjjz+OT1KPHz/e7F+LFi3klVdekfDwcPN8161b11yfHrod/RFB6Y8BgwYNMtX+2i5H77NUqVKmgjylnuA6CKruh1qzZo35EeX666+XG264wQzSuXPnTsmbN69Jlmtfcscnn3xio7gfVK666ipp0KBBqpP+MAAAAAAAAADAe13UBLkaPHiwGZSxZ8+epmJck6Dag9yzhYomqTVZrolTXfexxx6z12SPO++80yRrn3zySVPlrtXXmqTVCvG2bdua5KxWwWvy19Pw4cOlf//+phJbk9Han3v//v322oura9eupmWNPu+6f/7+/mbwy3vvvdc8Fs9K8PR6//33TRJc29MUK1bM/LhQs2ZNee6558yAp/ocpqRAgQLmNf7iiy9MUr1MmTJm33R5nTp15PHHHzfbcJLwjn/++cdGAAAAAAAAAJA2Fz1Brlq2bGkqxn/99VcZMWKE1KhRw14TRyvKjx8/LrNnz46vLs5u1apVM/umyVltP6LV5DqgqLYO0YEhk6uI1sSwVrvv2rXL9MjWSvgePXqY63r16mUqz3VK/Ji2b99uls+dO9cuSSo962g1eHK0X7hep/sXGRkpu3fvlokTJ8b3EdfHltztU9t3R/v27eWXX36Rw4cPm8r/DRs2mFY0mjBXOsCm3l63lZj+GKLPkx4P2nNc9+3UqVPy33//yXvvvWd+MElMW+84+5TWKbXnDgAAAAAAAMClL0ckyNNCK4gBAAAAAAAAALhQclSCXCuytaf3wIEDpW/fvqbdig4a+dNPP8mJEyfsWgAAAAAAAAAAZF6OSJBv3LjRDHxZsWJFueeee0wrjnHjxpkBG4cMGSIdO3aUsmXLSr9+/UiUAwAAAAAAAAAuiIueINc+0/Xr1zeDOkZHRyfbK1on7WM9duxYs+62bdvsrQEAAAAAAAAAyJiLmiDXARi7du1qBmxUd999txnYcc+ePWZgRk2K79y5U6ZOnSq33HKLSZTv2LFDbrrppvjbAAAAAAAAAACQERc1Qf72229LaGio5M2bV3744QeZNGmStGvXTsqUKWOW5cuXT8qXL29arEyfPl0++eQT8fHxkc2bN8vIkSPtVgAAAAAAAAAASL+LmiDXanFNeD/22GNy66232qUpu++++6R3796mkvybb76xSwEAAAAAAAAASL+LmiDftWuXudQBOtNK27AorSIHAAAAAAAAACCjLmqCPDg42FxqRXhaBQQEmEttvwIAAAAAAAAAQEZd1AR5ixYtzKX2H0+r2bNnm8smTZqYSwAAAAAAAAAAMuKiJshffPFFMxjnhx9+aPqRn8+KFStk+PDh4uvrKwMGDLBLAQAAAAAAAABIv2xJkO/cuTPZqXDhwvLmm29KdHS06UPet29fWbZsmZw9e9beMq79yvr162XIkCHSrFkziYqKknHjxsl1111n1wAAAAAAAAAAIP2yJUFeuXJlqVKlSrLT008/bdY5d+6cSXxr65SgoCApUaKEmbTneN26deXVV1+V06dPm4R5//79pVixYuZ2AAAAAAAAAABkRLa1WNHEdmqT5zpaQX7kyBEzacW45zo6f/z4cTMBAAAAAAAAAJBR2ZIgf+WVVy749PLLL9utAwAAAAAAAACQfrk2Qa4TAAAAAAAAAAAZlW0tVlKzZcsW+f333+Xbb7+Vb775RmbMmCGbN2+21wIAAAAAAAAAcOFdtAT5smXL5L777pNSpUpJzZo1pV27dnL33XdLt27dpH379lKrVi0zSGevXr3kzz//tLcCAAAAAAAAAODCyPYE+eHDh+Wuu+6SJk2ayMSJE+XQoUPxg3AmnnSQzi+++EKuu+466dSpkxw4cMBuBQAAAAAAAACAzMnWBPmmTZvkyiuvlKlTp8Ynwf39/aVFixZyzz33yNNPPy3PP/+8PPTQQ9KqVSspWLBg/Ho//vijNGrUSNatW2e3BgAAAAAAAABAxmVbgvz48ePSunVr2bNnj0l4V69eXb766itTUT579mxTTf5///d/8sYbb8iYMWNk5syZcvToUZkyZYpJjOtt9LY33XSTWQ4AAAAAAAAAQGZkW4L8iSeekJ07d5r48ccflzVr1kiXLl2kQIECZlly8uTJI7fffrssWbJEnn32WbNs9+7d0r9/fxMDAAAAAAAAAJBR2ZIg37hxo0yaNEl8fHykd+/eMnLkSNNaJa18fX3lrbfekocffthUkuu2tmzZYq8FAAAAAAAAACD9fGI045zFXnrpJRk2bJiULVtWNm/eLAEBAfaa9AkPD5eaNWvKvn37ZNCgQTJ48GB7DZA7rF27VkJCQuycSN1bn5XAwqXtHFTvAdNtJJLXJ9pGIl/ubmwjkR0bPZ6z4CgbiNxVb4WNRH7bUcdGIkH+7jrNSrs/rq06Vt5GIpcX3mOjOI2D3fUG/n27jWL3Ka+7T/0um2+j2G2dqmCj2Nf5qLt/fau667y34QYbiZwKc98HQ8rts5HIP+sr2kjkunqbbCSy5UQxG8UpEnDaRiJHPq1kIyBrHLrqnI1EyiywgXW6uPtbe3Q+HxuJFP830kaxt6+fz0Yi+Y65XzsCj7rnU3gxXxuJnKxmg1iBB91t5nFPZQmt6G7H/7i7TvBOd199zyT8ihNewr2Pc3ltEOtskA1iBRx1b3M2yN1uWDl3u9W+DbORyM52wTYSKbTFXSfGx70tkFWaPrnURiIHIgvaSKSov3uMbjxZ0kaxn5NllttI5Ob8m20k8tSuW20Up1Be9zNm88kSNoo9/4NO2khk5b5yNhIpWTDURiJ3lnM/iz0/x7/b29BGsedilHsCNi/l7keQ7xkbxX6unnA/o1es9HhTiFWpzn4bibQo6X5Wbj/tflZGRvvZSGT9Efc5yPtdURshrTzfI33ct7nY90t3xnN5vuPum3WeCPcYiCjpfhacCXY/O84GuO+XhTe7nx0q7zH3WPQJi7BR7GdAiHtchpZ239sDjrvv4VEe7+Hhpdy42LqzNor9/DjhxqeLu8dl/r3ufpwu5e734cvd+yqx0r2t8vyM8U34MIAsle+Ue56p3be7x2aRRe7x63l+nKrgnoP+HsuDDrvbOufnnjcxvh7nk8d3v2L/uedlVLD7vusX5m7nRNWExZFhZd1tlZ/nnuOhZd19PXiVDWLVen2jjWLvo477f6VjtQJtpN/5bBAr30mP953C7nnp+T4FZBX/UPdAy7/T/X4UUdL9MD1wlft5U3ahx+dNCXf5mQLueaL8w9zztNC6EzaK/X9TrUI2EjlezT03Aw+66+fx+LgqsM/9jA4v6Z6zRy9z76/ALhvE8vgqJ4W2u7cNK+3xn6lYR+vaIFYh95SVyKIe5/tvbrvss0Xc8/dkZTc3smzixesY4j57WWjOnDmmerxXr14ZTo6roKAg6dGjh6ki/+OPP+xSAAAAAAAAAADSL1sS5Bs2bDCXTZs2NZeZ0axZM3O5fv16cwkAAAAAAAAAQEZkS4L85Mm4P8csUcL9U7iMKlky7k8kT5xw/6QAAAAAAAAAAID0ypYEeeHChc3lsWPHzGVmOMl2bbcCAAAAAAAAAEBGZUuCvEyZMuZyxQp30J6M+ueff8xl5cqVzSUAAAAAAAAAABmRLQny66+/3gys+dVXX9klGTdp0iQz4Oe1115rlwAAAAAAAAAAkH7ZkiDv2LGjuVy9erVMmDDBxBnx6aefysqVK0189913m0sAAAAAAAAAADIiWxLkrVq1MhXfWkX+yCOPyKJFi+w1aTdz5kxzW60eb9asmZkAAAAAAAAAAMiobEmQqw8++EDy588vERERcsMNN8iwYcPiB9xMzfHjx2XgwIFy8803S2RkpBmcc+zYsfZaAAAAAAAAAAAyJtsS5PXr1zc9yP38/CQqKkoGDRokZcuWNe1XXn/9dfn666/lt99+k9mzZ8sPP/wgI0eOlM6dO0uFChXkrbfekujoaPH395dvv/1WatWqZbcKAAAAAAAAAEDGZFuCXN1yyy0yb948k/TWdivh4eHy008/ycsvvyzdu3c317du3VruvPNOefrpp2XKlCkSFhZm1q1YsaJJnrdr185uDQAAAAAAAACAjMvWBLlq0qSJrF27Vt5++22pVKmSSX6nNlWuXNlUkK9bt870MQcAAAAAAAAA4ELI9gS5KlCggPTv31+2bdsmGzZskPHjx5sq8kcffVTuv/9+c92HH34oK1eulK1bt8qzzz4rgYGB9tYAAAAAAAAAAGTeRUmQe6pRo4b07t1bBg8eLKNGjZJx48aZ6vKHH35YrrjiCrsWAAAAAAAAAAAX1kVPkAMAAAAAAAAAcDGQIAcAAAAAAAAAeCUS5AAAAAAAAAAAr0SCHAAAAAAAAADglUiQAwAAAAAAAAC8EglyAAAAAAAAAIBXIkEOAAAAAAAAAPBKJMgBAAAAAAAAAF6JBDkAAAAAAAAAwCuRIAcAAAAAAAAAeCUS5FksOjpaNm3aZOdcEyZMEB8fHzPNnTvXLs0dctu+Hzp0SIoXL272FwAAAAAAAAAcJMiz0PLly+Wqq66SSZMm2SXIbufOnZM+ffrIkSNH7BIAAAAAAAAAiEOCPAs1btxYVq5caedwMTzyyCPyww8/2DkAAAAAAAAAcJEgz0LaXiUlvXr1kpiYGDO1aNHCLsWFEh4eLl26dJExY8bYJQAAAAAAAACQEAlyXHIWLVpkqve//fZbM58nD4c5AAAAAAAAgKTIHOKS8txzz0nTpk1lzZo1Zv6+++6Trl27mhgAAAAAAAAAPJEgT6PVq1dL3759pVatWhIYGCgFChSQ6tWrS+/evWXBggV2rTiVK1cWHx8fOycyZMgQM6/T9u3bzbIJEybEL5s7d65Z5nBuP3ToUDM/efJkad68uRQtWlQKFiwoDRo0kPfff98MQOnQdZo1ayaFCxeW/Pnzm8FBx48fb69NSNu7OPedGmcdXT+tnH1PrW2MPl5n2/o8JHbmzBn56KOPpFWrVlKsWDHx9/eXkiVLyvXXXy/Dhw+XkydP2jWT+uuvv8xliRIl5KuvvjLPQd68ec0yAAAAAAAAAPBEgjwNNMl65ZVXytixY2Xjxo0SEREhYWFhsmXLFpPg1cStDgap/cQvJO1hfuedd0r37t1l/vz5cuzYMTl16pSsWrVKHn/8cbnnnntMkrxHjx5mnYULF8qJEydM/+2///5bHnjgAXn22Wft1nKHo0ePyrXXXiv9+vWT2bNnm/moqCg5dOiQ+SHi+eefl5o1a5ofLJJTpEgRGTBggGzevJnKcQAAAAAAAACpIkF+Hhs2bJCHH37YJKu1YnzcuHGyePFik6wdPXq0qZhWGn/33Xcm/vXXX2XlypUmVn369DHzOpUtW9YuPb8PPvhApkyZIg0bNpQvv/zS9NbWymqtEldaNd6+fXuZNGmStGzZ0qy7ZMkScztNFKt33nnHJPVziyeffFKWL19uYn3eZ8yYIcuWLZOff/5ZevbsaZYfOHBAunXrlqCC3qHPwbBhw0ylPQAAAAAAAACkhgT5eWibDq1g9vX1NRXNWpV9zTXXmD7XmsDVRLmTsHZamlx22WVSv359E6vSpUubeZ20XUhaHT582LQq0cS4VohrZbW2efnkk0/sGmISyJ07d5ZZs2ZJp06dpEmTJqaaXfdbaVW7Juxzg8jISPnmm29M/NBDD5kfHdq2bSuNGjUyPwRotf4zzzxjrl+7dq0sXbrUxJ6yc0DOgwcPmv1Iz6SV7QAAAAAAAAByBhLk56HVykp7jmuiO7Hy5cubHuMvvPBCfIXzhfR///d/ki9fPjsX57bbbotPBGsf77fffjtJYvjGG2+UgIAAE2srmNzg+PHjpv+40mr95GhrGa3I117k2mf8YtIEfkhISLqmjh072lsDAAAAAAAAuNh8Yi504+xLzMiRI+Wpp54y8R133CFvvvlmisnbxDR5rV555RUZPHiwiR1aDa0DfKo5c+YkGNRS27bs2LHDVKZrD25nO57KlCkj+/fvN/uyadMmuzQhZx0dZPOzzz6zS+MG6Zw4caKJU3v5nfvVxL/nYJpp2XcdVDTx4KMOXa4tYZTulzMIqLZMKV68uOm1ro/9ww8/NM954h8I0iutjze99DXVH0cyo+6tz0pg4aQ/vHgz/1C3dY5vpBtHB7g/AkUGu/HZIBvE8o20QaygQ9E2Ejl0uZ+NRPLvc4+BY3XduPrkUzaKE1nC3XB0gHsOnvN148hC7n7kDXe3dSa/u07AcfcxnKjqayOR8DLu8sAD7nbCy7n7XXGGu07AvnAbxTlwbSEbxT5nJy/ccQ0kJ7yUe0zHuKeTERXsHn/5d9kgVsEdZ20kkifaXcf/0GkbxZ4TtYNtJHKysnse+Hgc0oEH3JkY9xSSAnvd7XuKyu9u54zHe4WKKuA+jsBD7vl1uri7nt9p9/4Cj7rrHKnj3nnJFVE2il0/wj1nj9SJ+2Fa+Z/yeBBAFimyPtRGsedQtfw2iv2s8jhPj9d0j/vKP7oDnUcHuX/VeLBhoI3i+LiHfux5ZINY/h7jpIdWclcqvcQ93kPLuedKnih3ued7wuHL3QHUK/50xEYi+68vaiORQtvc9Y9XTTjgemRcJ0Ej4Ih7H+Fl3MdaZnFc0YWK8XOXny6a6E0M51Xj4XU2Etl8vLiNRNqWc5dP317PRiK3Vv7XRrHv1b4RNhL5cvPVNoo9RmM8Plc84qL5E37f2bXXPSYGNPnNRrHf+cQ9/sZta2ojkfuqLLaRyNITVW0U+/4f477Pbz3hPobeldz1/zpVxUYiC3e5t72psvs4Vx0rbyOR3Ufi/orYUbn4URvFHrMTKtgIyBpB9+61kUjrUuttFGfGvstsJFI4wP3e1bbEWhvFnrP7rrCRyOOVZtlI5MNdN9go9pgu4B7TW08Vs5FIJY/lp6Lc7z7Bed3zvU1h974m7rvWRnH+XVfRRrGfN0Hue31MhPv58VaLb20k8sdx9/FsOF7KRiKXFdlvo9jPhWj3vX32Knf9vIXdfSryi/s5CWSVY3VsEKvKNPd72tkC7veusDLu95ojV7ifgXlPuHGQx/+BVB73vx+S76T7Gej5XSuiiHsOeeZJPD5mE/x/yPP7XlhFd6b8H24cuDvMRrHbL+tu9Hi1hN/NSi9x8ymnS7vfKz1vH1algI1il+93z80T1dztLpvY30bZL+H/HJGEDoTpVI5rf+saNWqYFir9+/eX//3vf2bAzqxSsWLFZJPjykkalyrlfkAk5qyTW34D0Sr4p59+2sRaTa5tZTRhrhXzmizPLZXwAAAAAAAAAHIHEuTnUaxYMfn999/liivcX1jXrVsnI0aMkJtuuskkcLt27Sp//fWXvfbCCQ72KNlJgZ/fpVUFM3DgQBk0aFB8r/bQ0FCZPn26PProo6ZaXtuUaNuZ06fdX8Ivln79+smaNWvSNU2bNs3eGgAAAAAAAMDFRoI8DerVqycrV640g3TqAJjaRsQRFhZmBpbUwTHfeecdu/TCuJjJb213klVS27ZWzL/66quya9cuef/9900vdc8WKzrQ5XPPPWcGPNX2MRdTyZIlpW7duuma0tqeBwAAAAAAAEDWI0GeRpq41b7ZH3zwgWzbts30/da2H61atTLXaxsTTdxu3rzZzOdknm1bUmq/cvKkR5PJdHC2nVpbl7RsW5PPWjU+c+ZM05Nc29k88cQTZrnauHGjeb4BAAAAAAAAIKNIkJ+H9hhfvXq1qVz2pJXA2mJj1qxZ8sYbb5hlWhmt7VhyOs/K9JRalWgFd0Y4206tBUpq2963b5/88ccfcvasO1hHYGCgtGnTxgyYqq9DuXLlzPIZM2aYSwAAAAAAAADICBLk51GpUiXTf1xbq6REe5E7PAftTGmAzYutcGF3xHWthk9ORhP9zrZ37NiRYhV5Stv+6KOPpGzZsqatysKFC+3ShLTne6NGjUyclQOkAgAAAAAAALj0kSA/j5tvvtlczp8/X37++WcTJ6Y9yB0NGza0kcT3ztaBJnMSHejSMXr0aBu5tH2MUxWfXs62Dx48KN9//72JPU2dOjXF51F/aMiTJ+6QfPHFFyUqKsrEnvbu3RufPPd8rgEAAAAAAAAgvUiQn8fzzz9vEt1aDX3HHXeYvtjTp0+XpUuXyrRp06R79+7y1ltvmXWvu+46ad68uYlV6dKlzeXXX39tWrEsWbLEDOp5sXXo0EGCg4NNrAnyBx54wOzfvHnzzACZjRs3Nn3Cy5cvb9ZJj27dutlIpHfv3jJ06FCT0NZ2KH369JHOnTtLxYoVkx2AtEqVKnLPPfeYePHixXLllVfKuHHjZMGCBTJnzhwZNWqUXHPNNXLkyBFTnT9gwACzLgAAAAAAAABkBAny86hdu7Z8+eWXEhAQIGfOnDEDc952223SpEkTuf3222Xy5MkmeV6/fn2ZMmWKvVUcTUSrPXv2SOvWreXaa681SfKLrWjRovLxxx/HJ6nHjx9v9q9FixbyyiuvSHh4uEyYMEHq1q1rrk8P3Y7+iKD0x4BBgwZJs2bNpF27duY+S5UqZSrIfX19zTqJ6SCouh9qzZo18tBDD8n1118vN9xwgxmkc+fOnZI3b16TLNe+5AAAAAAAAACQUSTI0+DOO+80ydonn3xS6tWrZ6qvNUmrFeJt27aVTz75RP7++2+T/PU0fPhw6d+/v6nE1mS09ufev3+/vfbi6tq1q6xcuVJ69uxp9s/f398Mfnnvvfeax+JZCZ5e77//vkmCa3uaYsWKmR8XatasKc8995wZ8FSfw5QUKFDADNL5xRdfmKR6mTJlzL7p8jp16sjjjz9utuEk4QEAAAAAAAAgo0iQp1G1atVkxIgRJjmr7Ue0mnzfvn2mdcj999+fbEW0Jobfeecd2bVrl+mnfezYMenRo4e5rlevXqbyXCenYtqxfft2s3zu3Ll2SVLpWUerwZOj/cL1Ot2/yMhI2b17t0ycODG+j7g+tuRun9q+O9q3by+//PKLHD58WE6fPi0bNmwwrWg0Ya50gE29vW4rMe1Drs/Tr7/+anqO676dOnVK/vvvP3nvvfdMVX966P47+wsAAAAAAAAADhLkAAAAAAAAAACvRIIcAAAAAAAAAOCVSJADAAAAAAAAALwSCXIAAAAAAAAAgFciQQ4AAAAAAAAA8EokyAEAAAAAAAAAXokEOQAAAAAAAADAK5EgBwAAAAAAAAB4JRLkAAAAAAAAAACvRIIcAAAAAAAAAOCVSJADAAAAAAAAALwSCXIAAAAAAAAAgFciQQ4AAAAAAAAA8EokyAEAAAAAAAAAXokEOQAAAAAAAADAK5EgBwAAAAAAAAB4JRLkAAAAAAAAAACvRIIcAAAAAAAAAOCVSJADAAAAAAAAALwSCXIAAAAAAAAAgFciQQ4AAAAAAAAA8EokyAEAAAAAAAAAXokEOQAAAAAAAADAK/nExLIxgCy2du1aCQkJsXMiLT/vIgWrFLVzUNcU3WojkWNR+W0k8tvOy2wkUq/kXhuJrDlUxkYiYavd57J4owM2Etl/uJCNRPzznbWRSJMK220Ue1+RQTZKam9oQRvF3qaUe5uFe6vaSKRswZM2Ejl9Nq+NRPL5uve376S7nUdrzrWRyO4z7n5PWtfIRiLlip2wkUjNQgdtFKdw3tM2Etl0qoSNgKyx+WhxG4nkz3fGRnHy5jlnI5EuFf62Uewx6htuI5HX/rnZRrHHcqlDNoo9D8r9YSORlzfeZiORzhVX2Ejkfwfcc3/n0SI2EokM87eRyJ+tRtlI5K2DzWwksuiAe44qf99oG8Wem37uuXk41H2vyZfXXR4akc9GItWLHbaRyOod5WwkcnvdVTaK3adz7rm/97R7vgNZpU3x/2wUe1yGVbBR7OdKeGEbibQottFGsefK8So2EqlfcLeNRMYtb2qjOHfXX2aj2PPutPsZ9d/hUjaKPa8v+9FGImP3tLCRSKmAUzYSWby7so1Ewo+4n7MVKrnn05517javb7LWRiL/HCxro9jP3jI7bBSne7HFNhJZFVHJRiLT9tW3UcLP3/V73fu4vPweGyGt1h0obaPY72Bl3O9gyza6x1OLyzbYSKR5YTcO8ImykcjyMPd4qBzgHgPvr3GPn7trLbdRnO+3uq/pnVXd99st4e7n0sr95W0kEnHa/Ww4G+FnI5FOV7ifK6uPu+/hjYu53+u+XXeljURevXK6jURmHqtrI5Gle93jrWPV1TaKsyfCPe9OnAmwEZA1PN//j54tYKM4n6zweE/P46Z7ypQ8bqPY/4eW3mSj2P9n7apjI5FqRY7YKPbcP+S+dxYKjLBR7Peds+65VSbY/T/Q2XNu/eWu4+75EHYi0EZxKpVzz/8Tp91z5eQp93Oi3xXzbBT7Pn/KPccPhLvfr76t9Z2NRD4/UdtGIu8uaGsjkesudz8Dwz3+jwZkldrBbh5ie3gxG2newv0s9cwd1Cvsfq7uCHe/cwX4up+faleo+/+g01HusdyvqptXmHfcPQ/WHvX47C62z0ax51BEsI1iv9ftdnMpQfndc/ycx7l8Q0X3HJqxyf1/Wc0yCfMTL1X82Uax+7Smm41EGpZyv2+2LrLGRiLvbW1lo9jvjkHud8dpTUfbKPtRQQ4AAAAAAAAA8EokyAEAAAAAAAAAXokEOQAAAAAAAADAK5EgBwAAAAAAAAB4JRLkAAAAAAAAAACvRIIcAAAAAAAAAOCVSJDncCdOnJCnnnpKqlatKgEBAVKiRAlp0KCB+Pj4mKlXr152zZzj2LFjcuDAATvn0n119hsAAAAAAAAALjYS5DnYuXPnpE2bNjJy5EjZtm2bREZGyuHDhyU8PNyukfN89dVXUrt2bVm3bp1dAgAAAAAAAAA5EwnyHGzGjBny119/mbhFixZmfsmSJfL555+bZTnNwoULpVu3bnLw4EG7BAAAAAAAAAByLhLkOZhnFfbHH38sbdu2lSZNmkjjxo0lJibGTBMmTLBrXHxnz561UfJ0X539BgAAAAAAAICLjQR5DhYWFmYjkSpVqtgIAAAAAAAAAHAhkCDPwbQHucPPz89GAAAAAAAAAIALgQR5DqT9xn18fGTIkCF2iZh5Z/Kc79Wrl5lXH374Yfzy5s2b26UJaRuUhg0bmnV8fX1lwYIF9hrXf//9J0899ZRceeWVUrx4ccmbN68ULVpUrrjiCunfv79s377drhlH53V7LVu2tEvExLqscuXKdomYfXX2LyU7duyQZ555RurVqyfBwcESFBQkNWrUkD59+sjatWvtWknp/eh2Bw8ebOa/++47ad26tZQsWVICAwOlZs2a8vTTT8uBAwfM9QAAAAAAAABAgvwS0q9fP5NcV/Pnz0+2P/nrr78uK1asMLEmops1a2Zix4ABA0xyeuTIkbJy5Uo5cuSISaofO3ZMVq9eLSNGjJDLLrtMZs6caW9x4Wif9dq1a8s777wja9askdDQUDl9+rRs3rzZXHf55ZfLq6++atdOnvY379mzp3Tu3FlmzZolhw4dkoiICNm0aZO8++67Zt912wAAAAAAAABAgjwH+uSTT0xyWqumHTrvTCnRCurx48dL/vz5zfyzzz4rR48eNbFatWqVSZArTTa/9tprJnZoBfqbb75pWruEhITImDFjZM6cOfHJ9muuucasp0nr3r17xw/KWbZsWbNf48aNM/NKY13266+/2iWp+/zzz83j1WS2Vo6//PLL5r4XLlwo//d//yelSpUy+/XKK6/I0KFD7a2SGjt2rNmWJvk/++wz+fPPP2XKlCly3XXXmev1+XjggQdMDAAAAAAAAMC7kSDPgapXry7169eX0qVL2yVi5p0pNVWrVpU33njDxIcPH5bnnnvOxFFRUaayWi/z5csnX375pfj7+5vrVHR0dHxLF21psmjRIpOw1op0rTLX2y5evFg6dOhg1tmzZ49JPivdju6X7rfDeQxasX0+Wp3+2GOPmVhboixbtszsi963Jra10l2T+7Vq1TLraJJ83bp1Jk5MW6jceOONZhva0qVx48bSqVMnk2zX1jJq6dKlpio9sw4ePGjavqRnuhD3CwAAAAAAAODCIEF+CXr00Ufl+uuvN/Gnn35qEtnDhg0zLVKUVo5rhbUnTdxqlbZWnz/++ONSsGBBe01CXbp0sVFckvxC0Ir5kydPmvi9996LT4R70h8LtCJcaSW5rpcSbaWiPwJ40j7qmuR3aLI6s0aPHm0q7dMzdezY0d4aAAAAAAAAwMVGgvwSpK1WNDGuA1xqT25th6IJcqWJcx2sMjFNSv/777+m7/cjjzxilyblWdUeGRlpo8zRXuGqSJEicuedd5o4OdrixUnsp9QDXSvQEyf/HVWqVLGRmMcJAAAAAAAAwLuRIL9EVatWLb7Vyvr16+XMmTOmt/fEiRMlT57UX3ZNsCsdoFPbkUyaNEkGDhxoWpc4LVaUVnJfCE41d4MGDcTPz8/EKbn66qvN5datW02/8sQqVqxoo6Sc3uzK6Z8OAAAAAAAAwHuRIL+EaV9vz2pqrQyvXLmynUue9vru0aOHqcQuXry4NGnSxMxrsv2PP/64YFXjnjQRr/Q+z8dzHe1dnphnEjwxJ/GvtLI+s/r16ydr1qxJ1zRt2jR7awAAAAAAAAAXGwnyS9jKlSsTDGY5fvx4OXTokJ1LasyYMWYgS60Yd9YrW7asqRzXtiw//PCD/Pjjj2b5hZSeZLUOJurwTHhfDJqsr1u3bromz4FMAQAAAAAAAFxcJMgvUVFRUab3uLYS0dYqmkzWpLcO4JkcTabrddo2RZPi2sP8wIEDZiBO7ff99ttvZ9kAk0WLFjWXqSXvHQcPHjSX+ngKFy5sYgAAAAAAAADICBLkl6jXXntNVq9ebeJ3331XHnroIRN/++23MnXqVBN7+uSTT+Krs7/55huTXE+u5cnOnTttdOE4bWBWrFhx3t7gf/31l7msVKmSBAQEmBgAAAAAAAAAMoIE+SVI+4g7A3Q2a9ZM7r//fnnzzTelVKlSZpn2znb6fju2bNlio7jBMpOjrVC++uorO5d0oMvzDf6ZEm3horSneHLJe8fixYvlv//+M/ENN9xgLgEAAAAAAAAgo0iQX2K0tUqvXr1M8trf31/Gjh0b345EK8mVtk7RATw9FStWzEYiM2bMsJFLk+MvvviiLFy40C4ROXPmjI3i5MuXz0YioaGhNjq/++67L35wzSeeeEI2b95sYk+6z7qe8vX1TbFVDAAAAAAAAACkFQnyS8zrr78u//zzj4lfeOEFqVOnjolVt27dpHXr1ibWSnDPATfvuOMOG8UlrIcOHSpz5syRBQsWmCR748aN46vSHSdPnrRRnNKlS9tIZOTIkfLnn3+a6Xw0Of/hhx+aeP/+/dKoUSMZPHiwzJ8/31SNv/POO3LFFVfIhg0bzDqDBg1KscodAAAAAAAAANKKBPklRBPjw4YNM3HNmjVl4MCBJvY0evTo+N7dffv2NW1NVKdOnaRHjx4m1sS3JqG1jcn1119v1lu2bJm5nd6+QIECZr1169aZS4f2Bb/88stN/Mcff8g111wjTZs2lcjISLMsNT179pSPPvrIVL2fOHFChgwZIs2bN5frrrtOnnnmGVNBrpXj2irm5ZdftrcCAAAAAAAAgIwjQX6J0JYqOrCmtlhRWvXt2fLEUb16ddMqRWm19uOPP25i9fnnn8uECRNMUrxQoUImIa2XWq3dv39/Wbt2rTz88MPSokULs/7PP/8s4eHhJnboMq1G16pwPz8/KV68eJoH9tRE/Pr16+XJJ5+Uyy67zLRdCQ4OlpCQEHnqqafM/T///POmZQwAAAAAAAAAZBYJ8hxM24xo72+dEnOWa0JbaTJ6xYoV8cudJHZyXnrppfj1vvjiC7tUTOJZK7nnzZsnx48fN0l3vdTtapuTqlWrmvV++uknc1sd6DMoKMgsc1SoUEG+//57OXz4sEnWaxK+Ro0a5jrdV+d+U1KlShUZMWKESYZrH3OtZv/3339N//RatWrZtZLavn272e7cuXPtkqT0OXHuX/u0AwAAAAAAAPBuJMgBAAAAAAAAAF6JBDkAAAAAAAAAwCuRIAcAAAAAAAAAeCUS5AAAAAAAAAAAr0SCHAAAAAAAAADglUiQAwAAAAAAAAC8kk9MLBsDyGJr166VkJAQOyeyZs0aqVu3rp0DAAAAAAAAkJ2oIAcAAAAAAAAAeCUqyIFsFBERIVu2bLFzItWqVZOAgAA7BwAAAAAAACA7kSAHAAAAAAAAAHglWqwAAAAAAAAAALwSCXIAAAAAAAAAgFciQQ4AAAAAAAAA8EokyAEAAAAAAAAAXokEOQAAAAAAAADAK5EgBwAAAAAAAAB4JRLkAAAAAAAAAACvRIIcAAAAAAAAAOCVSJADAAAAAAAAALwSCXIAAAAAAAAAgFciQQ4AAAAAAAAA8EokyAEAAAAAAAAAXokEOQAAAAAAAADAK5EgBwAAAAAAAAB4JRLkAAAAAAAAAACvRIIcAAAAAAAAAOCVSJADAAAAAAAAALwSCXIAAAAAAAAAgFciQQ4AAAAAAAAA8EokyAEAAAAAAAAAXokEOQAAAAAAAADAK5EgBwAAAAAAAAB4JRLkAAAAAAAAAACvRIIcAAAAAAAAAOCVSJADAAAAAAAAALwSCXIAAAAAAAAAgFciQQ4AAAAAAAAA8EokyAEAAAAAAAAAXokEOQAAAAAAAADAK5EgBwAAAAAAAAB4JRLkAAAAAAAAAACvRIIcAAAAAAAAAOCVSJADAAAAAAAAALwSCXIAAAAAAAAAgFciQQ4AAAAAAAAA8EokyAEAAAAAAAAAXokEOQAAAAAAAADAK5EgBwAAAAAAAAB4JRLkAAAAAAAAAACvRIIcAAAAAAAAAOCVSJADAAAAAAAAALwSCXIAAAAAAAAAgFciQQ4AAAAAAAAA8EokyAEAAAAAAAAAXokEOQAAAAAAAADAK5EgBwAAAAAAAAB4JRLkAAAAAAAAAACvRIIcAAAAAAAAAOCVSJADAAAAAAAAALwSCXIAAAAAAAAAgFciQQ4AAAAAAAAA8EokyAEAAAAAAAAAXokEOQAAAAAAAADAK5EgBwAAAAAAAAB4JRLkAAAAAAAAAACvRIIcAAAAAAAAAOCVSJADAAAAAAAAALwSCXIAAAAAAAAAgFciQQ4AAAAAAAAA8EokyAEAAAAAAAAAXokEOQAAAAAAAADAK5EgBwAAAAAAAAB4JRLkAAAAAAAAAACvRIIcAAAAAAAAAOCVSJADAAAAAAAAALwSCXIAAAAAAAAAgFciQQ4AAAAAAAAA8EokyAEAAAAAAAAAXokEOQAAAAAAAADAK5EgBwAAAAAAAAB4JRLkAAAAAAAAAACvRIIcAAAAAAAAAOCVSJADAAAAAAAAALwSCXIAAAAAAAAAgFciQQ4AAAAAAAAA8EokyAEAAAAAAAAAXokEOQAAAAAAAADAK5EgBwAAAAAAAAB4JRLkAAAAAAAAAACvRIIcAAAAAAAAAOCVSJADAAAAAAAAALwSCXIAAAAAAAAAgFciQQ4AAAAAAAAA8EokyAEAAAAAAAAAXokEOQAAAAAAAADAK5EgBwAAAAAAAAB4JRLkAAAAAAAAAACvRIIcAAAAAAAAAOCVSJADAAAAAAAAALwSCXIAAAAAAAAAgFciQQ4AAAAAAAAA8Eo+MbFsDCCLRUREyJYtW+ycSLVq1SQgIMDOAQAAAAAAAMhOJMiBbLR27VoJCQmxcyJr1qyRunXr2jkAAAAAAAAA2YkWK7goTp8+Ldu3b7dzF4aPj4+ZevXqZZcAAAAAAAAAQMpIkCPbzZw501RRz5071y4BAAAAAAAAgOxHghzZateuXdKmTRvZunWrXQIAAAAAAAAAFwcJcmSr6OhoGwEAAAAAAADAxUWCHAAAAAAAAADglUiQAwAAAAAAAAC8ktckyLdv3y4+Pj5m0sEhIyMj5e2335ZGjRpJoUKFJDg4WK666ioZMWKEuS4lhw4dksGDB8ffLiAgQCpXriz33nuvLF682K6VVIsWLcx99+rVy8zPmjVLbrvtNilTpkz8Nvr06SNbtmwx12eU8xi//PJL085k9OjRcvXVV0vBggWlSJEicu2115rrHLrOhx9+aB6PPge63vXXXy/Tpk2zayRv586d8uKLL8o111wjpUqVEn9/fylcuLDUqVNH+vbtK2vWrLFrunS/qlSpYudEevfuHb+/yfnjjz+ka9euUqNGDfMc6f43a9bMPKaoqCi7VvJiYmJk4sSJ0rx5c3O7/Pnzm3174YUX5ODBg3YtAAAAAAAAAN7MJ0YziV5AE+ROcvb777+X1157Tf755x8zn1jDhg1lzpw5JmHs6ccffzQJ7uPHj9slSWmS+4MPPhA/Pz+7JI4myOfNmyc9e/aU8uXLy+uvv26vSUgTwb/88ovccMMNdkn6OMnmjz76SCZNmiQLFy4084kNHDhQXnrpJenQoYNJRCdHH8cjjzxi51y6/Omnn5YzZ87YJUn5+vrK+PHjzeN1pJQIV56HYXh4uDzwwAPy1Vdf2SVJaUJ/xowZUqxYMbvE3f6dd94pJ0+elN9//93MJ1a2bFmZPXu21KpVK25BNlq7dq2EhITYOTE/JNStW9fOAQAAAAAA4FKQkZRrarkzR1ancrN7H9Jyf1nNKxPkWvF84MABufXWW00Vs1Zxr169WoYOHWoqo9Xzzz8vb775pomVJpHbtWtnKpe1Wrpfv37Svn17U5m8atUqeeedd+Krv++//3755JNPTOxwEuTOfWvF+DPPPGOS8UePHjUJ7Z9//tmsW6FCBdm8ebO5n/RyDqrixYvL4cOHTaJd91XvVyvcX3nlFYmIiDAJ7JYtW5pK9k6dOsl9990nRYsWNdX1Q4YMMVX0+tj27NljKuUduo+aVFf6GJ544gmpV6+eBAYGyo4dO+SLL76Q3377zVyvt9dlThJbn6e9e/ea503p/ehroOrXr28ulSa4p0yZYuIGDRrI448/LrVr15Z9+/aZ52nmzJnmujZt2sj//vc/E6vEJ9QVV1wRf1t9XfUvBpYvX26ua9q0qSxYsMDE2YkEOQAAAAAAwKXr4+Ufywd/fSD/HvzXLkmbuiXqypp+STsyJLbm4Bqp91E9O3dh5c+bX0IHhtq5lIWeCZXgNxIWFmdEgF+AnH7xtJ27eLwyQa4GDRokr776qp2Ls2vXLtOGIywsTMqVKye7d+82y8+ePSs1a9aUbdu2mUSwJpW1VYmn0NBQuemmm2TRokVmXhO3msB1OAlypQlSrez2TDyrjh07mip1pUngG2+80cTp4Zkk7tatm2mn4rlME/mamHdo/H//9392Ls7YsWNNmxT1ww8/mP1yaEJ/xYoVJumtCW+thk/sscceM1XmShPmPXr0MLHyfB0+++yz+JYzDk2u33zzzSa+/fbb5dtvv01Sjd+5c2f57rvvTDx//nzTdkV5Pk5tX6O39fyRQX/c0DY6zl8O6L5UqlTJxBmhrVq05U566A8fns8nCXIAAAAAAIBLw4RVE6T3j73tXPqQIL94vHKQTq2m1gR5Ylq53bZtWxNr5fSJEydMrEliTY6rl19+OUlyXBUoUEAmT54sefPmNfPvvvuuuUzOsGHDkiTHlVaeO7TSODO0Qlz3IXFVtVaLO7TfuFZxJ3bLLbfYSBL0RNfn49y5c2bfNbGdXHJcad9whz6P6eFU3mv1ubZoSZwcV1oJ7jwup5rckz52TfInrsDX18bzOf7vv/9slDHaC11/7EjP5JkcBwAAAAAAwKXj05Wf2gi5iVcmyHUQSieRnZhnlblWhSutGFealNXe2CmpWLGiqSJXWi2eXI/uPHnymNYmyUnuvjNKq5L1h4DEtP+2QwfvDAoKsnMubc/i8NwPTYyvXLnS9GAfPny4XZpU6dKlbSSpDniamFZ4O33DtYpcB9dMjj7PWr2u+5H4rwDUlVdemexjVzrgp0Nb21wK9I9AdLBV/UsHJiYm7530fcBL/igMAAAAAHKk/w5lrhgTF4dXtlhJrq2IQ3t0O0lXpwWH9qvW1ilVq1ZNUFGdHO1j7lSnr1+/Pn4gSKfFiiafU2rLoVXqeh9q8ODBZl/Sy6ms1t7eTruWxJx1unfvblqwJMdZR/dB9yUlWlWuz4m2DtGqd+3xrb29dZBMlfj2qbVY0T7hTssTrbIfMGCAidPK2WdtzTJ16lQTJ6Y91p0fKCZMmJBgENH00seVXAV+emS0xYomw06dOmWeZx3UFAAc+sOn/oWQDjSd3F/hAAAAAACyRuE3C8uJyLiOFOlFi5WLxysryLV9R0qcJKtyfjs4cuSIuSxZsqS5TI3nOslVKKf3vpUmjrViOqUpuWpzTYycT0YTJ1u3bjU9yrXFSuHChU1f8i5dupgfFn755ZcMV79rT2+HM7BnRqTlsavM/jakg59qgjs907Rp0+ytM06fX/1BYv/+/STHASSh7wv6/qDvE5n9ayQAAAAAQNpFx0TbCLmJV1aQp1YV7VkVrBXdlStXltq1a8uGDRukSZMmsmTJEnNdSj766COTOFW6rt5GORXkWiGt+5KclPZRq6wnTpxo4uTMmTPHbF85SXatjNYK6eSkZ53Ez9X06dNNMjwiIsIuESlRooQZ3PSKK64w/dl1QFNNmqv0VJD/+eefcs0115hYe4g/9NBDJk6rtDwuzwry5AYJzWpaZa+9yB2aNE9PBbkmu3TwWC85bQFkkr4v6o+ZOk4GAAAAACBrBb4eKBFn3ZyZ481Wb0qT8nE5wpQE5Q2Sq8pdZedSFnYmTP7e+7edu7Dy+OSRZpWa2bmURZ+LloU7F9q5jEvr/WU1r6wgT6+iRYuay5Rao3jyrIJ2bnep2Lt3r/To0cMkx/XP90eOHGmq2/Uxa/J/1KhRZoDOxINjppVnz/FLpT/4haRtVUiOA0gPfb/Q9w19/wAAAAAAZC1NHCenQZkG0rxy81SntCTHVX7//Mne/kJMaU1W++bxTfb26Z1yQnJcUUGeSHIV5H369JGPP/7YVOJpMthzEMvE2rdvL7/++qtJEmuPaCdZnJkK8vRIT3V4eivItW/7c889Z+IvvvjCJMuTo49fnweVngpyHdRUE+86sKcm2r/66it7TVK33HKL2ZYOuDp69GizLC2PKzdXkB87dsy0TfAUGBhofojRS+fxA/BO+nF++vRp8wOjXnrSwZNTGvgYAAAAAHBh5BmSR2Ji/yU2655Z0qpqKzuHnIYK8jS48cYbzaUmHz799FMTJ2fHjh3y+++/m1gH9sxoJXVO5TlAaYMGDWyU1KRJk2wUV/XsKU+elA85fb6uu+46E2uSXX9gSI4OTDlr1iyTbA4LC7NLL33OwKcOTYrrDy76o0LevHlNT3kmJibvnfR9QN8P9H1B3x88JX7/AAAAAABcWOdiziWbHFd+eTI2DiCyBwnyNOjYsaNUqFDBxDoQ5dKlS03sSXtDd+/ePT4h/OSTT5rLS4nnwJkzZsywUUJjxoyRyZMn27m4qnBP+fLls1Hcc5aY079dkzkanzt3zsx7euKJJ0yVuerdu7e5vNTpjzOJB+TUynGqxgEkpu8LiVt86fuHl/zBGAAAAABcFCm1V1HakgQ5FwnyNNCqPG3ZodXPWrHcvHlz6d+/v/zxxx9mYElNCmtF9aJFi8z62rajQ4cOJr6UdOrUyUYiAwcONO1WZs6cKYsXL5bPP/9cWrduLQ8//LBdI07iqkVNsmuloxo3bpwsWLBAFi5cGJ+4ueOOO0z7FPXll1+a5/rrr782P0p8++23pprfaZ/SuXPn+MFJL3XJ/VCQuEIUABwBAQE2ciX3PgIAAAAAuDCiY1JOkFNBnrORIE+jG264QaZOnSrBwcGmennEiBEmWXvNNdeYpPDmzZvNelo5rv3KL0UNGzaUl156ycRaGa49ydu0aWPaomjfb217oj8ivPzyy1KnTh2z3rp168ylQ5Pj7dq1M/Hq1atND/FmzZolaN+iCXEnSa7J87vvvluaNGkiXbp0MT9KKO1xnlKf8UtRcpWfVI8DSEly7ayoIAcAAACArHP2XMI2w558faggz8lIkKfDbbfdZhLhL774oqkY116vQUFBUrt2bXnwwQdl+fLlJnGuFeeXqtdee02mT58ubdu2NdXgvr6+5kcDHWhSBzNduXKlGeS0Vau4gQe0unz37t0mdkycONG0RilVqpRJmOugp57r5M+fX3766SeZNm2aec51cDl9TrVlgFapawJdr6eCGgAAAAAAADmBJsH7NuwrD175oPSu31vuveJe6Vavm3Sp20WKBblti5Hz+MRQUgZkGx1YNCQkxM6JrFmzxvy4cD7a237Tpk12Lk6NGjXi29UAgCfeMwAAAAAASBsqyAEAAAAAAAAAXokEOQAAAAAAAADAK5EgBwAAAAAAAAB4JRLkAC6II6GRUvmFXxJMuswbLF26VHx8fMyUJ08e2bp1q70ma61bt85Gru3bt8fvy+DBg+1SAAAAAAAAJIcEOQBk0hdffGEjER33+NNPP7VzWWP//v3SpUsX6devn10CAAAAAACAjCBBDgCZEBUVJd98842JK1WqZC4nTJgg0dHRJs4KPXr0kG+//dYk4wEAAAAAAJBxJMgBIBN+/fVXOXz4sImHDBliLvfs2SMzZswwcVY4e/asjZKqXLmySZzrRIsVAAAAAACA1JEgB4BMcNqraPV49+7dpWjRomZ+/Pjx5hIAAAAAAAA5FwlyAMig48ePy88//2ziW265Rfz8/OT2228387r84MGDJgYAAAAAAJe2g2EH5aNlH8nHyz+WT1d+KhNXTZRJqyfJ12u+lqjoKLsWciIS5ACQQdoHPDIy0sQdO3Y0lzp4ptLe5J9//rmJU6O31yr01q1bS4UKFcTf319Kly4tt956q2nf4qlXr17i4+Mj8+bNM/N6qfM6ad9ztX379vhlKbVYOXfunOmb3qFDBylTpoy5zxIlSsgNN9wgH330kZw5c8aumZDeh7NttW/fPunfv7/UrFlTAgMDpVixYtK2bVuZOnWquT4lCxculHvvvVeqVKki+fLlk0KFCslll11mBh1dvXq1XQsAAAAAgNxj+/Ht0u/XftLn5z5y//T7pdePvaTHDz3k7il3y5no5P+fjZyBBDkAZJCTAC9VqpS0bNnSxJpk1nl1vjYrmsxu0qSJSRbPmjVLdu/ebRLrBw4ckJ9++knat28vDzzwgEloXyia1L7++uula9eupsp9//795j61j/qcOXNMkvqKK66QzZs321sk76+//pJ69erJiBEjZNOmTRIRESFHjx6V33//Xe644w556KGH7JoJadK+WbNm5kcBffyajD958qSsW7fOJOfr168vb775pl0bAAAAAIDcIfpctI2S8svjZyPkRCTIgUvM2ehzsutoeLZPe46ftnvg0mXJrZvVkz4HWW3r1q2yaNEiE2uy2dfX18R6qfNq/fr18eskFhYWJi1atJBVq1aZeW3NopXXS5YskU8//VRq1KhhlmuS/a233jLxq6++KitXrpSGDRuaeb3UeZ204vx8Tp06Je3atYvfJ73/r776Sv7880/54Ycf4tvD6H43b9481RYxen+a2H788cdNcl+rwnX/AgICzPXjxo1LMlDp7Nmz4wcybdSokXz55ZfmvufOnSvDhw83Vew6uOiAAQNk6dKlZj0AAAAAAHKDs+fO2igp3zxxOQPkTD4xmo0AkC3Wrl0rISEhdk5kzZo1UrduXTuXsrNnz5oqXU+aQNWe14lpgrjZ8Dl2zjsteK6lVCgaZOeyhiaDX3nlFRNrNfVVV11lYvX333/Hz/fu3dskvBN7/vnnTVJYvfPOO6ZViSftb3711Veb171gwYKyZ88eKVCggLlOE9vaXkWT2Jpc9qRV2dq6ROn+ebZZGTRokAwdOtTETzzxhIwcOdLEnnTZU089ZeK7775bJk+ebGKlLVb08Sj9IeC3334zrWE8aaK9U6dOJtZBSzUJ7tAWMRMnTpTixYvLli1bzOPy9M8//5ikf3R0tKlAHzt2rL0G6ZWe9wwAAAAAQObN3T5XWk6M++vyxM69fC6+XSlyHirIASADnMSvJh09k+NKq6Nr1aplYu1TrpXbnrRlymeffWbia6+9NklyXBUuXNgktFVoaKiptM4MTZi+//77JtYfZTQpn5wnn3xS2rRpY2Ldd03MJ+e2225LkhxXWoWuvciV/iDkSVvHqJIlSyZJjitt7fLSSy+Zx6390QEAAAAAyC1SqiDP45OH5HgOR4IcANJJ26A41blaJZ0cZ7m2Uvn6669N7NCK80OHDpk4pduru+66ywxaGR4eLjfeeKNdmjHLli2TEydOmFirwJ2WMMnp06ePudRKbm2LkpxWrVrZKKnKlSubS03se3J+NPjvv/9Mr/O9e/eaeU9a8a7V+bfccotdAgAAAABAzpdSD3L6j+d8JMgBIJ10gElHt27dbJSQZ+I78WCdGzdutJFIgwYNbJSU9vPWgTDz5ctnl2ScZzW3tm5Jjef1msxOTqVKlWyUVP78+c2lVq170qS4c50OyFm+fHlTbf/iiy/K/Pnzk6wPAAAAAEBukVIFua8P/cdzOhLkAJAOZ86ckW+++cbOidSsWdP8qVTiqVq1anYNMQNOeiaoPQe/dNqRZLUjR47YKK7FSWo8rz969KiNEnIS3cnRx68SD3Ghz9Uvv/wS3yNdr1++fLkMGzbM9FPX+33ggQfMIKEAAAAAAOQm0TFUkOdWJMgBIB00wZtS0jg1n3zyiY2SVlZnh/SMx6ytVRxOsvtC0US4VtD/9NNPptVL6dKl7TUix44dM9X2l19+eYIfIQAAAAAAyOlSrCDPQwV5TucTk56sCYBM0SrikJAQOyeyZs0aM2Di+WhC1el57dDBIf38kv4KeTb6nOw7EWHnss+x8DNy6weL7Fyc6Y9eJ0WC/O1c9ilTKED8fLPm979OnTrJDz/8YBLHOtBmapXU+rr17NnTVJ0XL17cDHjp7+8vY8eOlb59+5p1tJ95kyZNTJxWLVq0kHnz5plk89y5c+3SONu3b4+v0H7llVdMT2/18ccfx/cWX7BggTRt2tTEydmxY0d8H/EBAwaYCm81YcIEk9RWc+bMMfuRHGf/tA2L7s/56Hnwv//9zwwKqv3ZVXBwsOzatUsKFSpk5pE+6XnPAAAAAABk3ndrv5PO33e2c67iQcXl0LNx45AhZ6KCHLjEaGK4QtGgbJ/KFQ60e+DSZcmtm9VTViXHtXJcK8jVNddcY5Lfd955Z4pT165d5eabbzbrHz58WH788UcT16lTx1yqf/75x0ZJRUZGSrly5eSqq64yCe7M0F7mDicJnRLP652BNS8EHbBUW6ps3brVLomjPxo9/fTTphWNk8Q/deqULFqU8AcXAAAAAAByKnqQ514kyAEgjbTCWavBlSa/0+Lee++1kTtYpya8CxQoYOKvv/7aXCZHq7D37t0rf//9t+TNm9cujX3jzpP+t+6GDRtKkSJFTKyV755tVBIbN26cudQq+ZYtW5o4szThrdXgOijnq6++apcmddNNN9lIJCIi+/8SAgAAAACAjKAHee5FghwA0ujzzz83l5qgvuuuu0x8Pu3bt5eiRYuaeObMmbJz504JDAyUXr16mWXaIiW56vDw8HB56qmnTKztRu644w4Tq3z58pnL0NBQc5kW2trFqc7WlibPP/+8iRMbOXKk2U91++23S8WKFU2cWfoYmjVrZmLtL66V5Mlxeo9rcr5BgwYmBgAAAAAgp4s+l3yCnB7kOR8JcgBIg82bN5t+4Up7f3sOLpkaTUx36dLFxOfOnTPV20qrqCtUqGBi7Ueulea//vqrLF682FRw60CV//33n7n+rbfekoIFC5pYOfet7Vm0L/iyZctMf/PzGTRokFx22WUmfuedd6RVq1YmIa0tVaZPn26S8E5SvlSpUvLRRx+Z+EJ5+eWXTeJbK8O1T/mLL74ov/32m/z555/y3XffmXY0TkV9t27d4nupAwAAAACQ06XUYoUK8pyPBDkApMGXX35pI4lPeKfVPffcY6O49iY6NrK2O/njjz/MwIk6/8UXX5hq8+uuu04eeugh2bJli0km60CbDz/8sL11nA4dOphLHYhRB828+uqr05TMDgoKklmzZpn11ezZs02rmMaNG8ttt90mU6dONcvr168vCxculJIlS5r5C0XbtYwYMUJ8fX1N9bsO/qlJce3n3rlzZ5MsVzfeeGOme64DAAAAAJCdUmqxQg/ynI8EOQCkgZMg9/PzS9DuJC00AayJcLVjx474Fia67N9//5VRo0aZ9iPaikV7jevAnHfffbepWB88eLBZ11OnTp1kzJgxphpc261o4vvYsWP22tSVKVPGbFfbxbRr185UimuVe/ny5aVNmzYyadIkM1hm9erV7S0urCeeeML0VH/wwQeldu3aZt+d++/YsaOpJNfnR5cDAAAAAJBbUEGee/nEaOkigGyxdu1aCQkJsXNxvaDr1q1r51KmlcKbNm2yc3E0uarJ2pziSGikNBw6y87FWf7SjVKsQFy/bADZJze8ZwAAAADApeT9pe/L4zMet3OukJIh8u/D/9o55ERUkAMAAAAAAABAJlBBnnuRIAcAAAAAAACATKAHee5FghzABaGtVLa/2T7BRHsVAAAAAADgDaggz71IkAMAAAAAAABAJkSfS6GCPA8V5DkdCXIAAAAAAAAAyAQqyHMvEuQAAAAAAAAAkAnVi1aXm6rfJDdWvVFaVm4pzSo2k2srXCshJULsGsipfGJi2RhAFlu7dq2EhLhvjGvWrJG6devauZSdPXtWNm3aZOfi1KhRQ/z8+BUSQFK8ZwAAAAAAkDZUkAMAAAAAAAAAvBIJcgAAAAAAAACAVyJBDgAAAAAAAADwSiTIAQAAAAAAAABeiQQ5AAAAAAAAAMArkSAHAAAAAAAAAHglEuQAAAAAAAAAAK9EghwAAAAAAAAA4JVIkAMAAAAAAABAJqzct1J+2/SbzNwyU2Zvmy3zd8yXRTsXydZjW+0ayKlIkAMAAAAAAABAJry56E25efLN0ubLNtLq81bSfEJzafpZUxm+aLhdAzkVCXIAAAAAAAAAyIToc9E2SsjXx9dGyKlIkAMAAAAAAABAJpw9d9ZGCfnl8bMRcioS5AD+v737gG+yWuM4/nSz995DQNkoMgREEXEgiojiQEAQtyhy9bpFxb1woCDIUATHBeFerqJeZMoQEZS9h8iWvTpz+5ye0HS8adomJWl/337y6TlvT2matiH5v0+eAwAAAAAAgFxIdDlUkIdTQR7sCMgBIBf++OMPefrpp+Xiiy+WihUrSkxMjBQvXlzq1q0r1113nYwcOVIOHz5sV8MX48ePl7CwMHPZtm2bPZo9hw4dkr1799rZ2XPq1KlMv4ehQ4fm+nsEAAAAAAQPKshDFwE5AOSAhprXXHONNGvWTF566SWZP3++7Nu3T+Li4uT48eOyZcsW+fe//y333nuvCcvff/99+5kItMmTJ8u5554ra9eutUfOjh9//FEaN24sc+bMsUcAAAAAAPkVPchDFwE5AGSThuHNmzeX//73v2ZerVo1efjhh2XKlCny888/y7x58+Szzz6Tm2++WSIjI+XgwYMyaNAgGTJkiFmPwFmwYIHceuut5mTF2fTnn39Kly5dzIkSAAAAAED+RwV56CIgB4BsWL9+vXTt2lWOHDli5tpeZePGjfLOO+9Ijx495KKLLpIOHTpI7969TSXz77//LvXr1zdr33777TOhOgIjISHzByR5LTEx88oBAAAAAED+RA/y0EVADgDZcMcdd8ixY8fM+N1335UXX3xRChUqZOaZadiwoWm1UaxYMTP/xz/+Yd4DAAAAAID8gwry0EVADgA++s9//iOLFi0y4yuuuMK0TfFFjRo1TAsWtW7dOvn111/NGAAAAAAA5A/0IA9dBOQA4KORI0fakcizzz5rR77p16+ftGnTxlScV6xY0R5NMXToUAkLC5NatWqZFiFPPvmkVKpUSQoXLiz16tUzrVk8xcbGyscffyydO3eW8uXLS3R0tFmvrV8mTZokLpfLrkzL/XX0opuMOtHroWsuueQSeySFbjbp+flHjx41t4NuRKkV8qVKlTLtZcaOHStJSUn2szK3ZMkS6dWrl9SpU8d8n/peq+u1X3tO6PXR63XppZfaI2LGeky/Hzf9Obi/txMnTsjdd98tZcqUkaJFi5rvQ28/5XQbePK8PcaPH2+PipnXrl3bzlJedeBe50Svv27oqp+nr0jQn+dVV11lNnoFAAAAAAQ/KshDFwE5kM9tO7wtYBenO//0dh7dmenn++NyOuG0/SqBpWHq//73PzPW8LJt27Zm7Ku6deua6nPtWV69enV7NKN77rlHXnnlFdm7d6+cPn1aNm3aJKVLl7YfTalAP//8802wO2vWLDlw4IDEx8eb9d9++63cdttt0r59+4BvUqmbTzZt2tQE/qtXrza3j/Zl100yBwwYIN26dXPsB663gZ4s+Oqrr2Tr1q3m+9T3b731ljRp0sR8z4GmAb72jNcTDYcOHZKTJ0+a76Ny5cp2Rd6ZPn26acWjJ2A0KNcTIPrznDlzplx33XVs7goAAAAAIYAe5KErzOVUagjA7zSA0ypVt1WrVkmjRo3szJkGjboRpCetLI6MzPosZNjzzlWrubX1oa1Sq1Rqda6TWsNryfYj2+3Mv2b3nS2X1HKu8vWXuXPnnqkm1g04P/vsMzP2B63sfv755yU8PNwEt7rRp4bIWhk+bdo0efXVV02F865du6R169ayc+dO83nXX3+99OnTR6pUqWIC5lGjRsns2bPNxzRo1iptrc52c38dpes9K6s96fHt27dLx44dTZW0m47dFdpaBa8hvH59rQTX6nH9ehqYu6vAP/roIxP4e3rzzTfl0UcfNWOtln7iiSdM0L5nzx4TVmvI774dlLfr6SkuLk7WrFlj2tcMHDjQHBs9erS0bNnS3I4aQCutIJ8wYcKZr3HNNdfI4MGDTUivgbT2lddKb6fbwJPn7TFu3Djzb6sVK1aYn5VW9Cu9za+99lozbt68uXnv+bNQeh31pIdeH/27/umnn+SNN94w35fSkzOXXXaZGfsiN/cZAAAAAIDsa/JRE1m1b5WdpXr3yndlUGvfWrTi7KCCHAB8sH79ejtKqQYPBA1stV/5Dz/8YNpraCD6/vvvm3Bc/fOf/zwTjr/zzjsydepU6d69u7Rq1cqE1BqqPvTQQ+bjK1euNGF1oGiF85gxY0xrEb2uWlGvfdb1umv4rCZOnGjeu+nnvPDCC2asgbU7zNbQXyul//vf/8ojjzxyJhzPDg2YNXw+55xz7BExYz3mDsc96dfQ201PQHTq1Emuvvpqee+997y2QfFV+q+pP1M95g7H09Prrq8G0K/fpUsXc32GDRuW5vZLf1sCAAAAAIILPchDFwE5APjAszd2hQoV7ChzWkHs7eKthcjtt99+JhD3pBXWkydPNmPdINS96Wd6WqHtDmc//PBD064jELTNS//+/e0s1QUXXHAmCNZXTHj64osv5NixY2Y8YsQI0/s7vddee81UOucFDecjIs7+A5W77rrLtMVJr2fPnlKuXDkz1up4AAAAAEDwogd56CIgBwAfeFY1e+tMpa0tWrRo4fVy55132tUZaW/uzGjrlMTElLPR7hYimdEWGtoDXGlP8F9++cWM/c1buw/3BpXHjx837920hYnSHu5Om1/q9deTBHnB6bbOa1qBnxmtZne/WiGnm5cCAAAAAPIGPchDFwE5APigRIkSdiQB3QDTaQNPz2psbQ3ijefHA1V5XLNmTTvKyF0Bn36TTt1gVDVr1sy8d6J9w/OCt81S81K1atXsKKNChQqZ904bngIAAAAAggMV5KGLgBwAfODZ9kM3YHSiFdBaYZ7ZxVuo7OYZxHv6+++/7SjrFi+eHw9U5XFmbWDcnPp4u08sZNZaxZNuAJoXnG7rvFa8eHE7cqa/PwAAAACA4EUP8tBFQA7kc1sf2hqwS7USzpWvnhb0X5Dp5/vj0qZa3rTJuPDCC89sPqkbKgaKU7icnYDU3YpF5WTTyZxskukLX69LVFSUHQVWTm4bT/66nXJ7PQAAAAAAZx8V5KGLgBzI52qVqhWwi6938hqkZ/b5/rgUikxpQRFoWvXcoUMHM966dassX77cjPOKZ9X1/v377Shzni1gPD/PM4j1FrgfPXrUjvzLXRme1fU/dOiQHZ097tvqbNxOAAAAAIDQQw/y0EVADgA+uv/+++1I5IknnrCjvNGkSRM7kiw33vT8eIMGDewopf2L26lTp+woLQ19AxX8NmzY0LzXkwueVe7p/f7773Z09rhvK6fbSf355592BAAAAAAo6KggD10E5ADgo549e0rr1q3N+Pvvv5c333zTjH2xcuXKXPUDv+SSSyQiIuWs85gxY8z7zOhmjuPGjTNj7RPuuWFnqVKl7CilCj4zP/74Y8D6XXfv3t28137q//73v804M5MmTbKj7HO3wckt9221fft2x9vjhx9+sKOM/HU9AAAAAAChgR7koYtn8ADgI227MXHixDNtSx599FG588475fjx42aemRMnTsiwYcOkTZs2cuzYMXMsJz2nK1euLDfeeKMZf/fdd/LBBx+YcXp6ndauXWvGd999txQuXNiMVePGje1I5KOPPsoQ/O7duzeglfF6/StVqmTGgwYNkh07dpixp7ffflsWL15sZ9kXExNjR+L155IV922l7Wr+9a9/mbGnqVOnyowZM+wsI39dDwAAAABAaKhXtp7UL1tf6paua1rCarvZysUqS5GoInYFghUBOQBkwznnnCM//fSTVK1a1cw/+eQTE17fcccd8umnn8rcuXNl/vz5pgp6wIABUq1aNXnmmWfk5MmTZn3Hjh3l448/NuPseuedd84EzA8++KCpaJ8+fbppqfLVV19Jp06dZPjw4ebj2s5Eg3lP7dq1k5o1a5rxf//7X7n++utN2P7zzz+bYPqCCy6QjRs3Su3atc0afytRooS89957Zrxz507z9fTrLlq0SGbOnCm33XabDBkyRIoUyfmDB/fto/S20LA9J4H7rbfeakdifrZ6Wy5YsMBcTz3xcNNNN0mNGjXStK3xVLZs2TMfGz16tPmd0M8PVHU+AAAAAODsWnbXMln/wHrZNGiTbH1oq/w5+E/ZNWSXXF73crsCwYqAHACyqVmzZvLHH3/IXXfdJVFRUaZCePz48dK3b1/TCuXiiy82Ye/YsWPl8OHD5nOaN29uqs9nz54t9erVM8eyS8PfOXPmnPn8KVOmmLYl2valV69e5t9Wl112mRl7Vo8rDWwnTJhgWq8oDdevvvpqad++vQmmd+/eLW+88YZ06dLFfDwQtIpcTyrodTlw4ID5uhdddJFcddVV5qRC6dKl5f3337ers09PADRt2tSMZ82aJW3btjXfX2xsrDnmq8svv1weeOABM9ZXAehJDt2kVa+nnuDQDUe1gtzd9iY9/f50rdLfFf2d0M/fvHmzOQYAAAAAAIIDATkA5IC2WRk1apTp5f3WW2/JlVdeaarFtbWGXnSswexTTz1lKod1Y0oNzXPSXsWTbrqp/cy1xYqG8VqpHB0dLbVq1ZLrrrvO9PbW3tgVKlSwn5GWVrCvWbPGbDiqleL6uRq89+jRQ+bNmyf/+Mc/7MrA6d+/v6xatcq0p9GwX28vrcjX4ytWrDgTcOeUBtc33HDDmSrucuXKZdrOJSsa1Ou/pScR9N8qVKiQ1K9fXx577DETentunJoZPRmh1ecapruvh1bOAwAAAACA4BHm4vXeQJ5ZvXp1mj7QGhI2atTIzpzpxova+sKTBosaugFAetxnAAAAAADgGyrIAQAAAAAAAAAFEgE5AAAAAAAAAKBAIiAHAAAAAAAAABRIBOQAAAAAAAAAgAKJgBwAAAAAAAAAUCARkAMAAAAAAABADsUnxsuqfatk3YF1svHvjbL10FbZcWSH7Dq2SxKSEuwqBCsCcgAAAAAAAADIob0n9kqTj5rIeSPOk/of1Jc679WRmsNrStW3q5qwHMGNgBwAAAAAAAAAcshblXhkeKQdIVgRkAMAAAAAAABADiUmJdpRRhHhEXaEYEVADgAAAAAAAAA5lOhyDsipIA9+ZyUgf+GFF85cAGQtLCzMjlK5XC47AoC0kpKS7ChVZvcjAAAAAIDc89ZiJSKMCvJgd1YC8qFDh8rzzz9vLgCyFh6e8U/11KlTdgQAaZ0+fdqOUmV2PwIAAAAAyD1vLVaoIA9+Z+3ZMtWvgO+08rNIkSJ2luLgwYP8HQHIQO8X9P7Bk95/UEEOAAAAAIHhtYKcHuRBLyz5iXSeJ2wTJkywI5G+ffvaEZD/rV69Who3bmxnIqtWrZJGjRrZmXeHDh2SPXv22FmKwoULS5kyZaRQoUJUhwIFnLZV0cpxDcfTv8KkUqVKUrp0aTsDAAAAAPjTr7t+lQtHX2hnaR19/KgUjyluZwhGZyUgBwqq3ATkCQkJsmnTJqrGAWSLVo6fc845EhnJy/oAAAAAIBAW71wsbT9pa2dpnXzypBSOKmxnCEaUnAIhQsOtatWq0SYBgM/0/kLvNwjHAQAAACBwvPUgp8VK8Mt1QP7pp5+ay+HDh+2RrO3atUueffZZefDBB+0RAL4oVqwYITkAn7jDcb3fAAAAAAAEjrce5GzSGfxyHZD369dP7rjjDtmxY4c9kjUNyIcNGybjx4+3RwD4SsMubZegPYXTb9wJAHq/oPcPej9BOA4AAAAAgZfocq4gDw+jgUewy3UPct0YUKvUli9fLk2bNrVHvdNNOjVU140FT548aY8C+V9uepA70T9h3ZyP3uRAwab/F7v/TwYAAAAA5J0fNv8gV0y8ws5SafV4/DPxdoZg5XNAvm7dOrn//vszhHBz5swxT8YvuOACnyrVjh8/Lr///rvZcLBhw4aycuVK+xEg/wtEQA4AAAAAAICz57uN38nVk662s1QxETFy+unTdoZgla0K8l69esnXX39tAvFsfJqjUaNGycCBA+0MyP8IyAEAAAAAAPKX/6z/j1z7xbV2lqpoVFE5/uRxO0OwylZAvnfvXrntttskMTG1r87cuXNNYH7++ednWUGuL/2OiYkxvVG7desm119/vf0ICppDhw5JXFycVKxY0R7JnW3btknt2rXN+LnnnpOhQ4eacbAhIAcAAAAAAMhfpq2bJtd/mTHnLBFTQo48fsTOEKzOSg9yFGyTJ0+Whx9+WL788ku55JJL7NHcISAHAAAAAADA2TBlzRTp+XVPO0tVpnAZ+fuxv+0MwSrX26j26dPHXMqUKWOPAM4WLFggt956q+zbt88eAQAAAAAAAEJXQlKCHaUVERZhRwhmuQ7Ix48fL+PGjZNq1arJyZMn5aeffrIfSWvMmDEyYcIEs0knCi7dnBUAAAAAAADILxJdqe2oPUWGR9oRglmuA3K31157TapWrSpXXnmlxMfH26OpPv74Y+nfv78J0nUMAAAAAAAAAKHOsYI8nAryUOCXgHzgwIHy5JNPypEjR8wGnhs2bLAfSfXXX3+Jtjs/evSo3HvvvfLiiy/ajwAAAAAAAABAaEpMyryCnBYroSHXAfl3330nn3zyiRnXq1fPtFHR9+lt3bpVZs6cKQ0bNjRB+fPPPy9Lly61H4W/6GaVummqXrTft7a9eeWVV8wGqkWLFpXy5cvLZZddJt9++639DJHTp0/Lyy+/LE2aNJEiRYpI6dKlzSsB5s2bZ1dktGbNGhk8eLCcf/75Uq5cOYmKijJ96Js1ayaPPPKIuR6e3Nfr0ksvtUfEjPVYrVq17JFUeqJl2rRpct1115nNN2NiYszXufzyy2XSpEnmd8gbfRXDu+++K61bt5YSJUqYi163YcOG0eYHAAAAAAAAfuNUQU6LldAQ5soqacyCBpj/+c9/pH79+rJkyRIpWbKk/UjmNLDVoHLLli1ms8bPPvvMfgT+oEG0Bsrqq6++kueee07Wrl1r5p40mB45cqRcf/31JnT+/fff7UdSRUREyJQpU8zP2NMTTzwhr7/+uiQlJdkjGRUuXFimT59u/m3leb3Sq1mzZppA/e+//5ZevXrJrFmz7JGMrrrqKnPd9Osoz39fX6GwePFiWb58uZmnd+6558rcuXOlQoUK9kjeWb16tTRu3NjORFatWiWNGjWyMwAIDfGJ8fLXsb/sLK2iUUWlfNHydubseNxxOXDygJ35V0xEjFQuXtnOnJ1OOC17ju+xM//SSpHqJavbGZA39p/YLyfiT9hZ7hWOLCwVi1W0M2cn40/KvhOB2YA9KjxKqpaoamfO4hLjZNexXXbmXfHo4lK2SFk7A4DQd+jUITkSe8TOfFOxaEUpHJXyfNobfaykj5kCoWzhslI8pridOdPHjPrYMbd8/X8NyIlPfvtEHvzuQdOLXMPyJFdKZla/bH1Z/8B6M0bwynVAXrlyZdm3b5+MHTtW+vbta496N3r0aLn77rtNP/IdO3bYo/AHz6BYK64PHDggPXv2ND+b4sWLy/fff2/6xWu4rSczzjvvPHNiY8CAAXLTTTeZCnINtt966y2zpkaNGuZkhoblasSIEfLAAw+YsQa9Om7QoIH5uK4bNWqULFq0yHxce9Lr9YmMjJS4uDhTdf7rr7+aljxKfw9atmwp0dHR5pUFSr9m27Zt5ZdffjFzrTK/6667TJW5/lt6vfTfUHpcv57y/L7dOnToYMJyDeC17Y9Wj2/evNl8rHfv3mfl5AwBOYBQpg/0Hvz2QZm4cqLjk5RbGt8ik26YZGfOJq2cJLdNvc3O/KtttbaycMBCO3O28M+F0m5sOzvzr8rFKsuuIb6FdUBuLdixQAb+Z6CsO7DOHvGPrvW6yoxbZ9iZsxkbZki3yd3szL8alW8kq+5bZWfOVu1bJU0+amJnWWtasamMv268tKjcwh4BgNCz/sB66f1Nb1m2a5m4kt+yY1afWdKpdic7c9ZpQieZvW22nfnXJ9d+Iv1b9LczZ/2n95dxK8bZWe7ULV1XPrj6A7nynCvtESAwNG7VsFxbr8RExtijCFa5brFy8OBB816DVl+5A0IN1hE4Go4//vjj8vXXX8s111wjHTt2NK1U7rvvPvNx7Rmvldbvv/++Cau12rtdu3amOvyxxx4za/QExsqVK81Y255oaxylbXR+/vlnc6LjkksuMWG0hvALFy6Ubt1SniBp33n995WG4M2bN5dzzjnHzJWO9Zg7HFcaeLvD8QcffFB++uknufnmm6VNmzbmvX7Niy66yHx8zJgxJhjPjH6PWiV+yy23mPX9+vWTZcuWSZUqVczH9TbR0D439PdXA+/sXDZt2mQ/GwBCzz9//KeMXDbSLxU8APxjx5EdcsXEK/wejud3f+z9Qzp92kkOnkp5LgMAoUarui+ZcIn8uuvXbIfjBdnmQ5vlui+uk9X7VtsjQGBo5wZtr0I4HhpyHZBXrJjy8pTdu3eb9744fPiwea8VzQicsmXLmhYr6fXo0cOOUkLq+++/385SaaDu5q661nBXf97ay3zQoEGmr3dmtD2Km4bk2aGht9Kqb60WT0+D9ldffdWM9WxcZm1YtM+6fq7eGXnSinkN2VVsbOyZ7yunPvzwQ3OyJzuX7t27288GgNCi97lfrP7CzgAEC63e1hYnyL7Dpw/L95u+tzMACC1zt80NWKu4/E7bcn2z7hs7AwA/BOTaz1lNnDjRvPfFF1+kPMGmtURgaTV4oUKF7CyVu4paafV3ZrQ9i5t7U0ttpaLV5DrPLFR3q1Spkh2lBNG+0pMsv/32mxlruxfd+DMz7du3N+uOHTtmWsOkp99TZt+38txA1v3qBwBA1rRKydf+vgDyzqaDvDotN7SSEABCEff/ucP9PwBPuQ7Ib7/9dlNVNnXqVHn33XftUWdaIaxhulb33njjjfYoAkH7dmcmJib15R3uVwCk57kmszb17ups3VBTe5h//vnn8uSTT0rnzp3PtFhR3jbyTG/jxo12JNKihXM/SP3a+nGtZM+M9rZ34hmcJyRkvsMwACCj2ETfT3gCyDuxCfxt5ga3H4BQxWOz3OH+H4CnXAfk2k6jWbNmJkR95JFHTC/qkSNHmtBUW3LoRXtKa4/ryy67zPSs1rVayaubLCJwfGlhoxtoZteKFSvMJpcVKlQwlebaH1znr7zyiml5kp2qcU+ePem1PUxO+dq6J7PgPzu0z7luspmdy7Rp0+xnA0Bo4UkEEJy0t2WRqCISEZayoTqyh4AJQKjisVnucP8PwFOYK7cpYTLdKFHbWuiGjun7PqenX6569epm88W6devao/AX/VnUrl3bjLX/+NChQ83YU3bXjBs3zmxyqfTkh7ZX8awM15YtutGmnijR9icaururyD0/V82ZM0cuvfRSM549e3aaFi/aekc31VTff/+9dOnSxYx94cv3pMaPHy933HGHGaf/+nlBN+rUXuRuGprTaghAKNCNAGsOr2lnac3pO0dqlkr5WNGoolK+aHkz9kY3+jxw8oCd+VdMRIxULl7Zzpxp25hA9e7UsLJ6yep2BuSNo7FHZefRnSY0CQ8Ll5KFStqP5EzhyMJSsVjmrzb0pD3Q950IzOb7UeFRUrVEVTtzpv1kvbWBuus/d8mPW360s1SDWg2Sd6/K+lWwABBshs4ZKs/Pfd7OUl1Y5UL56sav7MxZxaIVpXBUYTtzpo+V9DFTIJQtXFaKx2Rd4KaPGXO6SfxL816SMctT9jrz1LVeV5lx6ww7A1DQ+SUgVydPnpTnn3/eBJD79++3R9MqVqyYCUtfeOEFKVWqlD0KfwpkQL58+XK58MILJTEx0YTiw4YNk65du5pKck8zZszIUUCuofiVV15pxpMnTz6zoaYvCMgBILA2/r1R6n9Q387S+nPwn1KthHN7KwA42276+ib5es3Xdpbq7gvulpHXjLQzAAgdT/zvCXn151ftLFXnOp3lx9sznhAsqDK7naIjouXKc66U6TdPt0cAFHS5brHiVqRIEXnttddkz549smjRIpkwYYK88cYbpu2GVh3PnTvXtNB47733zoTj//vf/8x7hAbtH6/huPryyy9N0Jw+HFf6SoKcOO+88+xI5Pfff7ejzDVv3txc9GQLACDwvL0MVSu2ASCYxURmfj/FS+wBhCqn+y8el6X1RIcnZN8/9smRx4/I6adOS9KzSRL7dCzhOIA0/BaQu2mLldatW5vNO4cMGSL//Oc/Ta9x7U2uGyTu3LlTXnzxRalTp86ZamGEhs2bU3d5dtpEU1+QoNXfbuk3wgwPd/6Vq1Gjhvm9UP/617/OhPHpbdiwwQToenFaAwDwL299Lp2CJwAIFk6BET18AYQqp/svHpelVSKmhGn/p+/1tsmqLTCQU9qK6ETcCfM+ISkh1/veIW/5PSDPjIakU6ZMkauvvtq0wdD2F9oSg1+W0OK5cebMmTPtKJX+PJ966ilZsGCBPSISFxdnRyliYlL/sz5+PGMPMd34Uunmrs8++6wZe9JA3L0mIiJC+vTpY8YAgMCighxAKHMMyKkgBxCiqCAHgou28yn2SjEp/FJhiXoxSsJfCJeIFyKkx5c97AoEs4AG5GvXrjVV5FWrVpWbbrrJ9JjWgNMdjNerV8+8R2i44YYb7Eikf//+pge59vGeP3++jBo1yrxyQFvqeDp69KgdpahUqZIdiQwfPlwWL15sLm4PPvignH/++Wb88ssvm17m33zzjVnz2WefSatWrWTWrFnm4/q7xUavAJA3vFVZah9HOEtyJcmp+FOSmMSrnoCzxbHFChXkAEKUY0BOBTlwViS6Mj7W1+cBruQ3BD+/B+QnTpyQTz75RC666CKzGaGGoLppp4bieilTpozce++9snDhQlm3bp39LISCHj16SO/evc1Yg+9nnnlGOnXqJBdffLHcc889snTpUtNG58MPPzQbsio9SeKpZs2a0rRpUzPWoLtt27bSvn17iY1N+c89OjpavvvuOxO2K93wU7+urtNq8d9++80cv/POOzOE8QCAwHF6EqbhOC9VTaUPgqu8VUXKvl5Wir1czFSPaOVIkZeLyIIdqa+wApC3qCAHkN84tlihghw4K7StSmYiwyPtCMHMbwG5bsypoWXlypVNz/ElS5acCcU19OzevbtMnTpVdu/eLSNGjJA2bdrYz0Qo+fTTT2X8+PEmFC9ZsqRpc6LvtSf5I488IqtXrzYnQC655BKzXgPukydPmrGbHtNqdG3ZEhkZKeXKlUuzsadu/Pnzzz+br9OlSxcpX768WafHr732WtPeZfTo0V77mQMA/IsnYb4JDwuX/Sf3y8FTB+VE/Ik0D5QJ4oCzhwpyAPlN93O7y2MXPSYPtX5I7rngHrmj+R1yS+NbpFXVVnYFgLzk9GrRiLAIO0IwC3Npgp1DBw4cMIGpVoy7q8HT/3NaVaabNmqLFaCg0xMI+soKt1WrVkmjRo3sDACC11erv5Je/+plZ6nKFSkn+x/db2dQWjmu4Xh6/77539KtQTc7A5CXXpn/ijz505N2lkqDpCV3LrEzAACAnBkwfYCMXTHWzlLd1uQ2mdhjop0hWGW7BFcDcG2B0bNnT6lWrZo8+uijJhzX43pp0KCBvPDCC7J582b7GWKqfwEAQOiigtx3jpWqVJAjAA6fPiwn4tK+WgEZNarQSG5qdJP0btpbBrQYIPe1vE8GtxlsnrQCAADkVmY9yFVEOBXkocDngHzbtm3y7LPPmh7S11xzjdk4MS4uzoTi2vrioYceMj2otef0008/LbVr17afCQAAQh0bQfnOsdcxrRwQAA0+aCDFXvHod/9SESn9Wmn5Zu03dgXUtQ2ulS97fimfXf+ZjLl2jIzoOkLevuJtGdR6kF0BAACQc449yMMoGg4FPgfkdevWlZdeekl27txpQvHSpUvLgAED5IcffpC//vpL3nnnHbngggvsagAAkJ9QQe47KsiRlzz/NnWT2FMJp0xVuSv5DQAApKV5lv7feSz2mBkD/kIFeWjzOSB333HUqlVLJkyYIPv27TMbJXbu3JnNEgEAyOeoIPdddES0HaVFBTkCwfFvk5NXAADIr7t+lfJvlJcSr5SQmGExEv5CuBR6qZCUeLUExQvwK8cK8nAqyENBtpJtDcm3b98u/fr1k3r16pm2Kj/99BNn3QAAyOd0I7sn2z8pQ9oOkQcufEAGnj9Q+jTrI13rdbUr4ObYYoUnYfAzdxVcZjh5BQCASFjy24GTB+RY3DGJS4yzR1NQvAB/SkxyqCAPo4I8FPgckC9evFjuu+8+KVu2rHkwvnXrVvnggw/k8ssvl6pVq8qQIUNk2bJldjUAAMhP2tdoLy9d9pK82eVNef/q9+Xjbh/LhO4TZFinYXYF3BxbrPAkDH6mlUpOrVSoIAcAwPsJY4oX4E9UkIc2nwPyVq1amUB8165dMm3aNLnhhhskOjrahOV79uyR4cOHmzXnnnuuDBs2TDZv3mw/EwAAoOCgghx5xdvvFBXkAAB4P2FM8QL8iR7koS3bzcMjIyPl2muvla+//toE46NGjZJ27dqZoFwvGzZskOeee07q169vP0Pk5MmTdgQAAJC/OQWT6V/WC+SWtyf2VJADAOD9hDHFC/AnKshDW6521yxZsqQMHDhQ5s+fbyrGhw4danqTu8PysLAws057lnfo0EFGjBhhNvcEAADIrxwryKlSgp9RQQ4ABdcr81+R1xa8JsMXD5ePln4kY5ePlc//+Fx2H9ttV0BRQY68Qg/y0JargNxT7dq15dlnn5X169fLwoUL5d5775XSpUuboDwpKckcGzRokOlX3rlzZxk9erQcPHjQfjYAAED+4BRMUqUEf6OCHAAKrqdnPy2Pz3pcBn8/WO779j4Z8O8B0vub3rJ6/2q7AooKcuQVKshDm98Cck9t2rQx1eK7d++WqVOnyvXXXy9RUVEmLE9MTJTZs2fLPffcI1WqVLGfAQAAkD9QQY68QgW5747GHpUvV30pn/3+mYz5bYyM+GWEvL3obVOBeSLuhF0FAKFBg7gkV5KdpcUJ0rSoIEdeoQd5aAtIQO6moXj37t1lypQpJiz/8MMPpW3btmdasMTHx9uVAAAA+QMV5MgrVJD7bu/xvXLzlJulz7Q+MvA/A+WB7x6QIT8MkSd/elIOnT5kVwFAaPB6/88J0jSiI6LtKCMem8GfqCAPbQENyD1puxWtGv/5559l48aNph1LnTp17EcBAADyB8cKcp6Ewc+8/U55CwQKIq8vsaeCEECI8foKIk6QpqHVu049oLn/hz/Rgzy05VlA7qlu3bpmQ08NygEAAPITx4CcJ2HwMyoIfef1JfacvAIQYrj/zx5e3Ye8QAV5aDsrATkAAAgt45aPk5fmvSRvLnxT3l/yvny87GOZsGKCrNy70q6AG0/CkFe8/U5FhUfZERQV5ADyEyrIs4fiBeQFepCHNgJyAACQpdG/jZanZz8tj/74qAyaOUjunnG39JveT6avn25XwI0nYcgrTr9T+jsYFhZmZ1BUkAPIT6ggzx6n2yQuMc6OgNyjgjy0EZADAIAsOQVIVCllRAU58orTE3vCkYy8btLGySsAIYYK8uxxLF7gsRn8iB7koY2AHAAAZMmxUpUgLgPHJ2GEcPAzTlz5zusmbQQkAEIMFeTZ41i8wGMz+BEV5KGNgBwAAGSJIM53VJAjr3DiKnsISADkF94eU3h7xUxBRQU58sLSgUtlz5A98tcjf8n2h7fLlkFbZMMDG+TGRjfaFQhmBOQAACBLBHG+o4IceYUTV9lDQAIgv/D2mIJNmjPiBCnyQunCpaVisYpSpXgVqVGyhtQuXVvqla0npQqVsisQzAjIAQBAlgjifNfjvB6y5M4lsuLuFbL2/rWmekQrSRYNWGRXAP7BiavsISABkF94e1zGJs0ZcYIUQFYIyAEAQJYI4nynlSOtqraSZpWaybnlzjXVI1pJolUlgD9x4ip7nG4Xp81OASBY8bgsezhBCiArBOQAACBLBHFA8CEgyR7HgIQKQgAhxunEHo/LMkcFOYCsEJADAACvXC4XQRwQhDhxlT2OAQkVhABCjOP9P4/LMkUFOYCsEJADAACvEpISxJX8lhmCOODsefrip+XgYwdl95Ddsu2hbbL+gfWy8t6VMrrbaLsCnqggB5BfOBYu8LgsU1SQA8gKATkAAPDK25MHKpWAsyc6Itr0tq9UrJLULFVT6petL40rNJZ6ZevZFfBEBTmA/IIK8uzhBCmArBCQAwAAr7yFRxrQAUAoICABkF9QQZ49z3V8Tn676zdZfd9q2fTgJvlz8J+y7x/75KOuH9kVAAo6AnIAAOCV1wpynogBCBFUkAPIL6ggz546petIi8otpGH5hlK3TF2pVqKalC9aXopEFbErABR0BOQAAMArb+ERT8QAhAoqyAHkF1SQA8ElyZUkZV8vKxXeqCBV3qoi1d+pLrWG15Jz3jtHfvnrF7sKwYyAHAAAeEUFOYD8gApyAPkFFeRAcElISpCDpw7K/pP7Zffx3bLz6E7ZfmS7bD60WeIT4+0qBDMCcgAA4FVcYpwdZcQTsYz2ndgnrUa3kmYjm8m5H5wrtd+tbSpJtKpk88HNdhWAvEYFOYD8ggpyILgkJiXaUUYR4RF2hGBGQA4AALzy2mKFJ2KZWrprqfyx9w9Z//d62XZ4m6kk0aqSUwmn7AoAec2xgpyAHECIOb/y+XJL41ukx3k9pGu9rtK5TmfpUKODNK7Q2K4AkJe0gtxJZHikHSGYEZADAACvvLZYoYI8A28nDWjlAJw9tFgBkF/c3ux2mXTDJJly0xSZcesM+fH2H2XeHfPk5ctetisA5KVEl5cK8jAqyEMBATkAAPDKW3gUFR5lR3DzdtKASlXg7Klbpq60rdZWLql1iVxR9wq5tsG1cmPDG+Wi6hfZFQAAANlHBXnoC3Mls2MAAbZ69Wpp3Dj1ZW+rVq2SRo0a2RkABKdvN34rXSd1tbNUWo15+unTdgY33cU+4oXMK0V+6vOTXFr7UjsDcqfd2HayZv8a87eoJ2b0fXREtDze/nHp3bS3XQUAAIBA2nt8r1R6q5KdpbX6vtXSsHxDO0OwooIcAAB45bgRFO1VMhUeFu5YWU8FOfzp8OnD5rL3xF7ZcWSHbDy4UVbvX22OAQAAIG94a7FCBXloICAHAABeOYW63nptF3ROJw/odQx/cjx5xd8mAABnzN46W1qMaiENRzSUuu/VlWpvV5Pyb5SXWsNr2RVA7nhrsUIP8tBAQA4AALyqWbKm9GnWR3o16iXdz+0uV51zlXSq3Una12hvVyA9p4CSCnL4k+PJK17dAQDAGcfjjsuKPStk7YG1suXQFvnr2F9y4OQBcwH8ITGJCvJQR0AOAAC8alu9rUzoPkG+6PmFfNPrG/n2tm9lVp9ZMrXXVLsC6VFBjrxABTkAAFlzfFxG4QL8xGsFeTgV5KGAgBwAAMDPqCBHXqCCHACArDk9LtNQUzdXB3LLWw9yWqyEBgJyAAAAP6OCHHmBCnIAALLm7cQxj83gD94qyGmxEhoIyAEAAPyMCnIEmsvlooIcAAqof635l0xaOUmmrJkiMzbMkB83/yjzts+TfSf22RXw5O3EMY/N4A/eepDTYiU0EJADAAD4GRXkCLT4pHg7yogKcgDI3wZ/P1hum3qb9Py6p3Sb3E26TOwiHcd3lJmbZtoV8EQFOQKNCvLQR0AOAADgZ1SQI9C8PaGngjxzR2OPysI/F8rsrbNNiDR93XT5avVX8vkfn9sVABAaaLGVPVSQI9DoQR76CMgBAAD8jApyBJq3J/QEJJlbvnu5tBvbTjp92kmu+vwq6f5ld+n1r17S+5vebNIGIKTQYit7qCBHoFFBHvoIyAEAAPyMCnIEGhXk2UdAAiC/oII8e6ggR6DRgzz0EZADAAD4mVMQF5cYZ0dA7lBBnn0EJADyAzZpzj5OkCLQvFWQ02IlNBCQAwAAr7Rf74QVE+SLVV/IN2u/kW83fiuztsySjX9vtCuQnmMFOU/C4CdUkGcfAQmA/IBNmrOPE6QINKce5OFh4RIWFmZnCGYE5AAAwKsPf/1Q+k3vJ7dMuUV6fNVDuk7qKp0/6yzvLH7HrkB6TkEcT8LgL1SQZx8BCYD8gBOk2RcdEW1HGXGCFP7g1GKF/uOhg4AcAAB45fTEgRDOmdNtQwgHfyEgyT4qyAHkB5wgzT6t4HUKyXlsBn9warFCe5XQQUAOAAC8cnriQAjnzDEgJ4SDnxCQZJ+324WABECo4ARpzjgG5Dw2gx84tVihgjx0EJADAACvnJ44EMI5c3qCSggHf3H6u9RelxHhVCtlhgpyAPkBJ0hzxrF4gcdm8IOLa14sSwculcUDFsuCOxbI3H5zZVafWTL95ul2BYIdATkAAPDK6YkDVUrOHJ+EEcLBTxz/LglHHHm7bQhIAIQKb48leGzmzLF4gcdm8INShUpJyyotpXW11tKuRjsTmHeq3UkurX2pXYFgR0AOAAC8cnriQBDn7ObGN8uUm6bIjFtmyI+3/yjz+s2TJXcukVHXjLIrgNxx/LskHHHEJm0A8gMqyHPGsXiBE6QAkhGQAwAAr6ggz75GFRpJj/N6SNf6XaVznc7SoWYHaVW1ldQrW8+uAHKHCvLsY5M2APkBFeQ543TbxCXG2RGAgoyAHAAAeEUFORB8nJ7QE45451hBSAU5gBBBBXnOcP8PwBsCcgAA4BUV5EDw4cRVzlBBDiDUOd3/s0mzd06PW7n/B6AIyAEAgFcEcUDwuanRTfLHPX/I0oFLZcEdC2RWn1ny7a3fyshrRtoVyIxjQEIFIYAQ4Vi4wOMyr6ggB+ANATkAAPCKCnIg+JQuXFqaVGwiLau0lHY12kmn2p3kqnpXmfdw5hiQUEEIIEQ4Fi7wuMwrKsgBeENADgAAvKKCHEB+QQU5gFBHBXnOPNfxOZl+83T5vvf3MqfvHFk0YJH8dtdvMqj1ILsCQEFGQA4AABy5XC4qyAHkG04BktOmpwAQbKggz5n2NdrLtQ2ulS51u0jHWh2lTbU20qJyC6lUrJJdAaAgIyAHAACO4pPi7SgjKpUAhBpeYg8g1Dmd0ONxGXD2fPr7p9Ly45bSekxraTe2nVw87mLpNKGT3P/f++0KBDsCcgAA4Mhb2wEqlQCEGqcAiRYrAEIFr+wDgs+uY7tk2e5l8stfv8jCPxfK/B3zZfa22eYYQgMBOQAAcOStqpJKJWebD26WHl/2kK6TukrnTztLh3EdpNXoVtJsZDM5GX/SrgKQ16ggBxDq2BsGCD4JSQl2lFZEeIQdIdgRkAMAAEdUkOfMsbhj8s26b+Tbjd/KrK2zZMGOBbJ011L5Y+8fcjrhtF0FIK9RQQ4g1FUpXkU61Oggraq2kmYVm8m55c6V2qVqS7US1ewKAHktMSnRjtKKDI+0IwQ7AnIAAODIW1VldES0HSE9b1VcBHHA2UMFOYBQd1vT22TeHfNkyZ1LZMU9K2Tt/Wtly0NbZNrN0+wKAHnNsYI8jAryUEFADgAAHHmtIOelvI68VdcTxAFnT8WiFaV6iepyTplzpFH5RnJ+5fOlTbU2UrNkTbsCAAAgexJdVJCHOgJyAADgyGsPclqsOKKCHIF2z4x7pMlHTaTlxy2l3dh20mlCJ7nq86tk3PJxdgUy82HXD2XH4B2y8cGNsuq+VbLsrmWyaMAiebTdo3YFAABA9tCDPPQRkAMAAEdUkOcMFeQItM2HNsuqfatk2e5lsvDPhTJ722yZuWmmbDy40a4AAABAXqAHeegjIAcAAI7iEuPsKCMqyJ1RQY5Ac/o94sQVAAAZfbfxO+k2uZt0+ayLdBzfUdqMaSMtRrWQ7l90tyuAnKMHeegjIAcAAI6KxxSXTrU7Sbvq7aRllZbSuEJjqVemntQuVZuKCC+oIEegOf0eceIKAICMdhzZITM2zJAft/wo87bPkyV/LZEVe1bImv1r7Aog5+hBHvoIyAEAgKPmlZrLrD6zZEH/BbJ04FJZee9K2fDgBtny0Ba7ApmJCo+yo4yoIIc/UEEOAIDvnE4gU7gAf6AHeegjIAcAAPCzsLAwx6CSJ2LwByrIAQDwnePjMgoX4Af0IA99BOQAAAAB4FipxBMx+AEV5AAA+I4KcgRSgose5KGOgBwAACAAqCBHIFFBDgAF06+7fk3pob0zpYf22v1rZcuhLXI09qhdgcxQQY5AooI89BGQAwAABAAV5AgkKsgBoGC6/9v7peP4jtLmkzbSYlQLafhhQ6n7Xl0Z8csIuwKZoYIcgeTYg5wK8pBBQA4AABAAVJAjkKggz5lT8adkx5EdsvHvjbJq3ypZtmuZLPpzkSzeudiuAIDg5niClPt/r5welyW5khzDTcBXiS4qyEMdATkAAEAAUEGOQKKCPGe+WfeN1BxeU+p/UF+afNREWo5uKReNvUi6f9HdrgCA4OZ4gpT7f6+8nUDgsRlyy7GCPJwK8lBBQA4AABAAVJAjULTaLT4p3s7SooLQO/4uAYQ6KshzxtsJBP4PQG7Rgzz0EZADAAAEABXkCJS4xDg7yogKQu/4uwQQ6qggzxkqyBFI9CAPfQTkAADA0boD62TWllmyYMcCWfrXUlm5d6Vs+HuD7D2+166AEypVESjenshTQegdf5cAQh0V5DlDBTkCiR7koY+AHAAAOPpo6UfS+bPO0mFcB2k1ppU0HdlUGnzQQO6ecbddASfREdF2lBZVSsgtb0/kqSD0zilAYpM2AKGCCvKcoYIcgUQP8tBHQA4AABw5PgmjSilLTrcRVUrILSrIc85rBSEBCYAQQAV5zlBBjkCiB3noIyAHAACOqFLKOafbiBAOueXtiTx/m955rSAkIAEQ5Lxu0sz9v1de7/95bIZcogd56CMgBwAAjhyrlHgSliUqyBEo3p7IU0Honbf7LgISAMHO6ybN3P975fX+n8dmyKVhnYbJ1zd+LZNvmCwTr58o468bL59c+4l0a9DNrkCwIyAHAACOHCvIeRKWJacnYt6e3AK+oII857xWEBKQAAhyXk+Qcv/vlba6CEt+ywwnSJFbF9e8WHo27Ck3N75Zbmt6m/Rt3lf6t+gv51c+365AsCMgBwAAjqggz7lbGt8i7175rozsOlLGXTdOJvWYJFNumiKD2wy2K4CcoYI857xWEBKQAAhyXk+Qcv/vVVhYmONtxAlSAATkAADAERXkOXd53ctlUOtBcnfLu6Vf835yS5NbpMd5PeSCKhfYFUDOeHsiHx0RbUfIDBXkAEIZFeS543QbcYIUAAE5AABwRAU5EHyc/i6jwqMkPIyH995QQQ4glFFBnjtUkANwEuZKZscAAmz16tXSuHFjOxOp3H+ERJevaWcAEHx2xzwiceEb7CxVqfi+UjLhRjsDkJdOhi+R/TEv2lmqMFdhqXH6aztDZlwSLzsKX29naVWMfU0KJTWyMwAIPnFh22V3ofvtLK1qpz6TCCltZ8jMzph+khh+wM5SlY0bLMUSL7MzAGfLsqc7S9liZ+dkHyUmQe7IkSMyePBgqVOnjhQqVEjKly8vLVq0MP2z9NKvXz+7MngcOnRI9u7da2ep9Lq6rzcAIDRomJSZMFeUHQHIazFJDaRC7HNSPvYpKRf3mHliXybuASkdP8CugLNI+z4jp/s7AAgW3u6nwoTHZllxuo24/wdAQB7EkpKSpEuXLjJ8+HDZunWrxMbGyoEDB+TkyZN2RfCZPHmynHvuubJ27Vp7BAAQyhwDcp6EAWdNhJSSwkkXSpGktlI08WJT9VY88UpzgXdhyW/ieIKPgARAkAvzdj/FY7OsEJADcEJAHsRmzpwpv/zyixlfcsklZr5o0SL59NNPzbFgs2DBArn11ltl37599ggAIPQ5PWHgSRiA0ERAAiBUUUGeOyUSbpQycfcmXwZJ2bghUi72cSkf+4w56QygYCMgD2KeVdgff/yxXHHFFdKmTRtp3bq1aOt4vYwfP96uOPsSEhLsKHN6Xd3XGwAQGlwOlUo8CQMQqhwDcq+VmQBw9jkG5K6I5Ps24p2sFEu8VIondk2+dDHjokntpUhSa4lyVbIrABRU3IMGsRMnTtiRSO3ate0IAIC845LMT37SgxxAqHK6/3K6vwOAYOH4uIzCBeCsOhA1XPZHvyz7o15LvryRPH/bHIsN22BXINgRkAcx7UHuFhnpvKEQAACBQg9yAPlNmMNGnbRYARDseFwGBKdTEb/IyYiFcjJyfvJlrpyI/Cn58j9JCKMFcaggIA9C2m88LCxMnn/+eXsk+T+85Ln74jnv16+fmasRI0acOd6xY0d7NC1tg3LBBReYNRERETJ//nz7kVRr1qyRwYMHy/nnny/lypWTqKgoKVOmjDRr1kweeeQR2bZtm12ZQuf671166aX2iJixHqtVq5Y9Iua6uq+fk+3bt8s//vEPadKkiRQvXlyKFCki9erVk7vvvltWr15tV2WkX0f/3aFDh5r5119/LZdffrlUqFBBChcuLPXr15chQ4bI3r17zccBAL5xfiLGidusxIVtk4NRo+TvqA/kQNQ7sj/qddkX/VLy+1ftCgBng2OLFQJyAEHOufUdj8uAsyu1wNUTrY9CR5iLhtBBRwPyuXPn2llG+iNzh8x9+/Y904dcj3fq1EnmzJlj5uPGjUsToCsN3d0h8mOPPSavvfaaGbs98cQT8vrrr6epXk9PA+fp06ebAFppQO7UAqZmzZpnAnW9LhMmTDDjzH7ttM/6Qw89JKdPn7ZH0goPD5fnnntOnn32WXsklQbkGq7rx/TrOW1kqkG/3raNGze2R/KWhvyeX7vsnQ9LZPmKduZfhZKa2JEzV/JbbPgqO/O/mKQGyf8hRNuZs9iwdQHr+xmdVDv5v6RiduYsLmyLJIWltjXyp6ikahIhpe3MWXzYn5IYdtjO/CvSVSH5kvXvWkLY3oCd5Y5wlZIoV3U7c5YohyQ+fKed+Ve4q6hEu+rYmbMkOS5x4VvtzL/CXNES42pgZ86SJDb5OgTuJXm+3UckyY7C19pZWhVjX07+N5raGTJzKnyp7ItJPdl9hitSKsa9aCfZF+Eql/y3VNnOnCWE7U++7LEz/wp3lUj+W6ppZ84S5Ujy3/MOO/OvMFfh5L+lc+zMWZKcTP5b2mxn/haR/HfQ0I6d6UviY8NT95bxp8ikqhIpZewMvtgVMyj593KLnaUqFd9fSib0sLNU8cl/R4nJf0+BEOEqnfz3XM3OnCXIQUkI/8vO/MvX/xsTk/9vjD/r/zeeTv573mhn/haW/Pec9XME/b8xNty5cCe3YpLOdTyJ40nvUwLVFig6qU7y4+eiduYsLmxz8uPnk3bmX8Hx+LmieQydlby8jzgR/rMcjhprnjvpz19P7OklwlVWqsV+YlchO06b58OBicWik+ol/y0VsjNn2obDFRZrZ/4VlVQr+W+puJ05iwvbmvz3fNzO/CsyqUryY5WyduYsPuyv5L+lg3bmXxGu8j71mtfnwvqcOLv2RQ/N9Geom8Bqn3v4ZtnTnaVssRg7y1sE5EFo06ZNcvz4cRk5cqSMGjXKHFu+fLl5r5o3b55pQK62bNkiTZs2Nf3Ltfp7/fr1JhRWK1askFatWkl8fLxZs3TpUomOTg0vtQL9gQceMGMNcXXcoEEDU2mu/65el0WLFpmPV61a1QTR2volLi7OVJ3/+uuvMnDgQPPx0aNHS8uWLc2/37BhyhNHbwG5Btr6vSitHNcKdq1C1+p1/ZpvvvnmmervF198UZ5++mkzdnMH5BUrVjTrtAJdq93PO+88+euvv+Ttt9+Wn3/+2azVTU4XL15sxnktfUAu9yVfsn7MlSM1T82wI2cakO8o3M3O/K/q6bE+PajcGXOHJIYH5kFlxdhXfAoC90Q/LrERgTlZUDZusBRLvMzOnGmfMn0pViCUjL9VSiXcamfODkd+LkeiJtuZfxVN6Czl4h+2M2fHI36Uv6PftTP/iklsIpXiXrEzZ6fD/5C9MU/amX9FJFX06QmMPtnaVehOO/M/X+4jNKT/s/ANdpZWpdg3kp/En2dnyMyp8BWyLybt/1f+UDy+u5RJyPp342jkVDmU/CQ6EIokXiTl47L+G9En8gdisv6by4nopLpSOTbr+4rYsE2yp1DW9z05Ee4qLtVPZ32fmShHZWfhrO+Ds6tQ4gXm5xAuZ+eJRKjaHTNE4sLX21mqUvG3S8mEXnaW6lDkp3I06is7869iCV2kbPwgO3N2LGKmHIz+wM78q1Bic6kYN8zOnJ0KX558n/aMnflXZFJlqRo72s6caXiyq9DdduZnrgipeXq6nTjTUHJH4e525n9VT42XSClnZ852FuoTsCCpYuzrPp382xP9aPLj58Cc/CsbN8RsopgV7fWr7QwCwek+Ib1guI/Q53VhyW/Ivh2FeogrLM7O/KvK6Y98KhD6K+YeSQhQgVCF2KFSOKmlnTnbG/2cnI5YZmf+VSbuPimeeLWdOfs7aoQcj/zOzvyrRPwNUjrhDjtzdiTyX3I4KjVjy63ysc9JkaQL7QxZeeempnL9+Vn/zQQCtf5B6JxzzjEheKVKqWe3dO6+eFOnTh155ZWUJ6IHDhwwVeJKQ3ENoPV9TEyMTJw4MU04npiYeKali7Y00TBZ25poNXuHDh3M5y5cuFC6dUsJUzV0dofM+u/o9dLr7eb+HtzhuDeHDh2SBx980Iy1JYoG93pd9Gu3a9fOtFzRcF/DeqVV5GvXZv5ATMPxzp07m39DA3kNw3v06CGzZ882rWXUkiVLzEmI3Nq3b58JvLNz8cfXBYC84+WVHWzSmSX6gSKQCie2lgpxTxOO54DZpNMVZqqWw1xFJdxVSiKSyiePs67yA4BgRDgOBCdarGTP4K/+sKO8x08qH9LK74svvtiMx44da4Lsl19+Wf74I+UXTSuwtcLakwa3Wn1dtGhRGTRokJQoUcJ+JK1evVLPoGtI7g9jxoyRo0ePmvG77757Jgj3pCcLtGWM0vYvus6JVovrSQBPWonurlBXGlbn1ocffmiqwbNz6d49cNUmAOBv3l5iRvibNRPCAQHiktOyP/o12R/1mhyIekv+jnrPvAIHWasY95LUOP3v5MvU5MuXUv30RKkWO05KJF5nVwAAAPgDsWuo4CeVD2n7FQ3GdYNLbWVyxx13mIBcaXCum1Wmp6H0ypUrTWuX+++/3x7NyLOqPTbWPz2y/ve//5n3pUuXlp49e5pxZtq2bXsm2P/xx8yfAGoFevrw382zT7p+nwAA75z6j2rVpS897Qu6KFdV0ZfsA4FwOuJ3ORWxWE5GzpcTkbPleOQPkhD2t/0ovAmTCKotAQBAwEUl1bAjBDsC8nyqbt26Z1qtrFu3zvQJ197e2gNcN7v0xt3f/O+//zbtSD7//HN58sknTesSd4sV5W0jz+xwV3O3aNHC9DT3RnuoK+2JntlmnjVqON/5aHW8W0JCYDa0AYCCoEhix+QHELQiyIqeYCiS2N7OgMDSTUuLJnawMwAAAJxNuleML5uTIjgQkOdj2tfbs5paK8N1M0tvtNd37969TSW2bvLZpk0bM9ewfdasWX6rGvekQbzSr5kVzzXauzw9zxA8PXfwr/yxN+19990nq1atytZl2rRp9rMBIPRoj17dILJsvPMrjZCWbkxbPKGbRLh4cIwAcUVKTGJTqRj7YsqrFgAAAHDW6N4musFu+bgn7BH4SjfpPFvCXP5IChEQQ4cOPbNxZvofkzvs1b7a48dnvsPub7/9ZjapdFdLly9f3lRr6/vMjBw50oTonpXhVapUMRttNmvWTNq3b28qvN1V5NoTXDfCdJszZ45cemnKTuO6KaZusulJ12oFu/L8fgoVKmSC95tvvlkmT55sj2bun//8p7z++utmvHv37jMtXzT43759u3Ts2NFcj8x4Xr/01z2v6O2vvcjdKvX/QKLL17Qz//LlpcO623mgBcP14Dqk4Dqk4DqkyOl18OXzkJG/f578HqfgOqTg7zKw+B1KwXVIEejroLgtUnAdUvhyHZBz/A6l4Dqk8Nd14O82Z5Y93VnKFjs7G9BTQZ5PxcfHm97jGo5raxUN1Pfv32828MzM8uXLzcc0HNdQXHuY792712zEqf2+33zzzYBtMFmmTBnzXq9fVvbt22fe6/dTqlQpMw5leqcZqDdfeK4P1JsvPNcH4s0XnusD8eYLz/WBePOF5/pAvPnCc30g3nzhuT4Qb77wXB+IN194rne/IWc8b0N/vPnCc30g3nzhuT4Qb77wXB+IN194rg/EGwLL87YOxJsvPNcH4s0XnusD8eYLz/WBePOF5/pAvfnCc30g3nzhuT4Qb77wXB+IN194rg/EGwLL87YOxJsvPNcH4s0XnusD8eYLz/WBePOF5/rcvCH0EJDnUy+++KL88ccfZvz222/LXXfdZcZfffWVTJ061Yw9jRkzRhITE834yy+/NOF6Zi1PduzYYUf+424DoxXvWfUG/+WXX8z7mjVrmspzAAAAAAAAAMgpAvJ8SPuIuzfo7NChgwwYMEBeffVVqVixojmmvbPdfb/dNm/ebEcpm2VmRtuieLZASR9mZ7X5pxPd/FNpT/HMwnu3hQsXypo1a8y4U6dO5j0AAAAAAAAA5BQBeT6jrVW0t7aG19HR0TJq1Kgz7Ui0klxp6xTdwNNT2bKpm4fNnDnTjlJpOP7UU0/JggUL7BGRuLg4O0oRE5PaJ+j48eN2lLX+/fuf2VzzoYcekk2bNpmxJ73Ouk5FREQ4tooBAAAAAAAAAF8RkOczL730kvz+++9m/Pjjj8t5551nxurWW2+Vyy+/3Iy1Enz69OlmrG644QY7Sgmshw0bZjbanD9/vgnZdbNPd1W629GjR+0ohXvDTDV8+HBZvHixuWRFw/kRI0aY8Z49e6Rly5Zmg9J58+aZqvG33nrLbBK6fv16s+aZZ55xrHIHAAAAAAAAAF+FubQ0GEFJQ+Lnn3/ejNP/mLQqXPXt21fGjx9vxhqMX3jhhaaKvH79+qYHuWdVt9LqbO35ffr0aRNoa8uS0qVLm4/dfvvtMnHiRDPOjPb81ir0xx57zFSI9+nTRyZMmGA/mkKDbHfvc6XV3idOnDDXQyvb3esz+7UbOXKkqSBPX5nupv+WngDQr+/+/t1q1aol27dvl44dO8qcOXPs0bT0+KWXXmrG48aNM9cnr2mf9QsuuMDORMpd/5REla5iZwAAAAAAAEDB8/U9baVUkWipW7du3u87qAE5gtNzzz2nKbK5pOc+3rdvXzOPj493tWjR4szx2bNnm+OZefHFF8+s6927tz3qciUlJbnGjx/vuvjii10lS5Z0RUREmPf67z7yyCOuzZs3m3XXXHON+dwyZcq4Tpw4YY657dixw3XDDTe4ypYt64qMjHRVrFjRtWHDBvMxva7ur+tky5YtrocfftjVsGFDV9GiRV3Fixd3NW7c2DV48GDXunXr7KqMatasaf7djh072iMZ6W3i/vrjxo2zR/PWtGnTzlwHLly4cOHChQsXLly4cOHChQsXLly4pF5WrVplU7S8QwU5kIe0rU337t3tDAAAAAAAAIDbqlWrpFGjRnaWN+hBDgAAAAAAAAAokKggB/LQ4cOHZe7cuXYmUr169Qx94gEAAAAAAICC6Gz0ICcgBwAAAAAAAAAUSLRYAQAAAAAAAAAUSATkAAAAAAAAAIACiYAcAAAAAAAAAFAgEZADAAAAAAAAAAokAnIAAAAAAAAAQIFEQA4AAAAAAAAAKJAIyAEAAAAAAAAABRIBOQAAAAAAAACgQCIgBwAAAAAAAAAUSATkAAAAAAAAAIACiYAcAAAAAAAAAFAgEZADAAAAAAAAAAokAnIAAAAAAAAAQIFEQA4AAAAAAAAAKJAIyAEAAAAAAAAABRIBOQAAAAAAAACgQCIgBwAAAAAAAAAUSATkAAAAAAAAAIACiYAcAAAAAAAAAFAgEZADAAAAAAAAAAokAnIAAAAAAAAAQIFEQA4AAAAAAAAAKJAIyAEAAAAAAAAABRIBOQAAAAAAAACgQCIgBwAAAAAAAAAUSATkAAAAAAAAAIACiYAcAAAAAAAAAFAgEZADAAAAAAAAAAokAnIAAAAAAAAAQAEk8n8wRoOwzL+biQAAAABJRU5ErkJggg==;movable=0;resizable=0;rotatable=0;deletable=0;editable=0;locked=1;connectable=0;" vertex="1" parent="1">
          <mxGeometry x="-310" y="110" width="1480" height="707" as="geometry" />
        </mxCell>
        <mxCell id="3AwvlTaeFGF3-e-vgOh3-2" value="" style="rounded=0;whiteSpace=wrap;html=1;strokeColor=#b85450;align=center;verticalAlign=top;fontFamily=Helvetica;fontSize=12;labelBackgroundColor=default;fillColor=none;dashed=1;dashPattern=8 8;strokeWidth=5;" vertex="1" parent="1">
          <mxGeometry x="-40" y="180" width="120" height="280" as="geometry" />
        </mxCell>
        <mxCell id="3AwvlTaeFGF3-e-vgOh3-3" value="" style="rounded=0;whiteSpace=wrap;html=1;strokeColor=#b85450;align=center;verticalAlign=top;fontFamily=Helvetica;fontSize=12;labelBackgroundColor=default;fillColor=none;dashed=1;dashPattern=8 8;strokeWidth=5;" vertex="1" parent="1">
          <mxGeometry x="110" y="180" width="200" height="280" as="geometry" />
        </mxCell>
        <mxCell id="3AwvlTaeFGF3-e-vgOh3-4" value="" style="rounded=0;whiteSpace=wrap;html=1;strokeColor=#b85450;align=center;verticalAlign=top;fontFamily=Helvetica;fontSize=12;labelBackgroundColor=default;fillColor=none;dashed=1;dashPattern=8 8;strokeWidth=5;" vertex="1" parent="1">
          <mxGeometry x="350" y="180" width="210" height="280" as="geometry" />
        </mxCell>
        <mxCell id="3AwvlTaeFGF3-e-vgOh3-5" value="&lt;div&gt;&lt;br&gt;&lt;/div&gt;&lt;font color=&quot;#ff3333&quot; style=&quot;font-size: 21px;&quot;&gt;&lt;b&gt;Stimulus to look for&lt;/b&gt;&lt;/font&gt;" style="text;html=1;align=center;verticalAlign=middle;whiteSpace=wrap;rounded=0;fontFamily=Helvetica;fontSize=12;fontColor=default;labelBackgroundColor=default;" vertex="1" parent="1">
          <mxGeometry x="-40" y="480" width="120" height="30" as="geometry" />
        </mxCell>
        <mxCell id="3AwvlTaeFGF3-e-vgOh3-6" value="&lt;font color=&quot;#ff3333&quot; style=&quot;font-size: 21px;&quot;&gt;&lt;b&gt;Stage 1:&lt;/b&gt;&lt;/font&gt;&lt;div&gt;&lt;font color=&quot;#ff3333&quot; style=&quot;font-size: 21px;&quot;&gt;&lt;b&gt;Cue followed by test&lt;/b&gt;&lt;/font&gt;&lt;/div&gt;" style="text;html=1;align=center;verticalAlign=middle;whiteSpace=wrap;rounded=0;fontFamily=Helvetica;fontSize=12;fontColor=default;labelBackgroundColor=default;" vertex="1" parent="1">
          <mxGeometry x="110" y="480" width="225" height="30" as="geometry" />
        </mxCell>
        <mxCell id="3AwvlTaeFGF3-e-vgOh3-7" value="&lt;font color=&quot;#ff3333&quot; style=&quot;font-size: 21px;&quot;&gt;&lt;b&gt;Stage 2&lt;/b&gt;&lt;/font&gt;" style="text;html=1;align=center;verticalAlign=middle;whiteSpace=wrap;rounded=0;fontFamily=Helvetica;fontSize=12;fontColor=default;labelBackgroundColor=default;" vertex="1" parent="1">
          <mxGeometry x="380" y="480" width="150" height="30" as="geometry" />
        </mxCell>
        <mxCell id="3AwvlTaeFGF3-e-vgOh3-8" value="" style="endArrow=none;dashed=1;html=1;rounded=0;fontFamily=Helvetica;fontSize=12;fontColor=default;labelBackgroundColor=default;strokeWidth=5;strokeColor=#FF3333;" edge="1" parent="1">
          <mxGeometry width="50" height="50" relative="1" as="geometry">
            <mxPoint x="590" y="510" as="sourcePoint" />
            <mxPoint x="590" y="180" as="targetPoint" />
          </mxGeometry>
        </mxCell>
        <mxCell id="3AwvlTaeFGF3-e-vgOh3-9" value="&lt;font color=&quot;#ff3333&quot; style=&quot;font-size: 21px;&quot;&gt;&lt;b&gt;New Trail&lt;/b&gt;&lt;/font&gt;" style="text;html=1;align=center;verticalAlign=middle;whiteSpace=wrap;rounded=0;fontFamily=Helvetica;fontSize=12;fontColor=default;labelBackgroundColor=default;" vertex="1" parent="1">
          <mxGeometry x="640" y="470" width="200" height="30" as="geometry" />
        </mxCell>
      </root>
    </mxGraphModel>
  </diagram>
</mxfile>
